<svg width="16" height="16" viewBox="0 0 16 16" fill="none" xmlns="http://www.w3.org/2000/svg">
<path d="M7.15112 2.03302C7.5424 1.40371 8.45831 1.40371 8.84959 2.03302L10.4659 4.6327C10.6036 4.85411 10.8223 5.01301 11.0754 5.07552L14.0474 5.80942C14.7668 5.98708 15.0498 6.85816 14.5722 7.42476L12.5993 9.76535C12.4312 9.9647 12.3477 10.2218 12.3664 10.4818L12.5868 13.5351C12.6402 14.2742 11.8992 14.8126 11.2127 14.5334L8.37704 13.3803C8.13552 13.2821 7.86519 13.2821 7.62367 13.3803L4.78796 14.5334C4.10151 14.8126 3.36052 14.2742 3.41387 13.5351L3.63426 10.4818C3.65303 10.2218 3.56949 9.9647 3.40145 9.76535L1.4285 7.42476C0.950896 6.85816 1.23393 5.98708 1.95335 5.80942L4.92527 5.07552C5.1784 5.01301 5.3971 4.85411 5.53477 4.6327L7.15112 2.03302Z" fill="#FFCB02"/>
</svg>
