<svg width="24" height="24" viewBox="0 0 640 640" version="1.1" xmlns="http://www.w3.org/2000/svg" 
  style="display: block;" ><path fill="rgb(153,171,184)" stroke="rgb(153,171,184)" stroke-width="1" opacity="0.9725490196078431" d="M 256 3 L 258.5 3 L 268 10.5 Q 267.3 12.8 269.5 12 L 274.5 16 L 276 15.5 Q 274.8 18.3 273.5 16 Q 270.9 15.2 272 18.5 L 268 24.5 L 268 26.5 L 267.5 28 L 266.5 26 Q 265 29.5 263.5 27 L 234.5 28 L 234.5 27 L 249.5 27 L 250 24.5 L 256 3 Z M 257 5 Q 256 9 259 8 Q 260 4 257 5 Z " /><path fill="rgb(153,171,184)" stroke="rgb(153,171,184)" stroke-width="1" opacity="0.9725490196078431" d="M 282.5 9 L 281.5 11 L 277.5 14 L 280.5 10 L 282.5 9 Z " /><path fill="rgb(153,171,184)" stroke="rgb(153,171,184)" stroke-width="1" opacity="0.9725490196078431" d="M 232.5 28 L 231.5 30 L 226 33.5 L 222.5 40 L 223 38.5 Q 223.7 32.2 228.5 30 L 232.5 28 Z " /><path fill="rgb(153,171,184)" stroke="rgb(153,171,184)" stroke-width="1" opacity="0.9725490196078431" d="M 221.5 42 L 222 48.5 L 221 48.5 L 221.5 42 Z " /><path fill="rgb(153,171,184)" stroke="rgb(153,171,184)" stroke-width="1" opacity="0.9725490196078431" d="M 222.5 50 Q 224.3 56.3 229 59.5 L 226.5 58 Q 224.3 58.8 225 56.5 L 222 51.5 L 222.5 50 Z " /><path fill="rgb(153,171,184)" stroke="rgb(153,171,184)" stroke-width="1" opacity="0.9725490196078431" d="M 230.5 60 L 237 62.5 L 233.5 63 L 230.5 60 Z " /><path fill="rgb(153,171,184)" stroke="rgb(153,171,184)" stroke-width="1" opacity="0.9725490196078431" d="M 238.5 63 Q 245.5 61.5 244.5 65 L 255 65 L 255 89.5 L 256 91.5 Q 253.7 92.7 255 97.5 L 256.5 105 L 257.5 97 L 258 105.5 L 257 106.5 L 257 117.5 L 255.5 119 L 248.5 119 L 248 121 L 246.5 121 Q 238.8 122.8 235 128.5 L 232.5 135 L 232 132.5 L 236 125 L 247 119.5 L 244 104.5 L 244 96.5 L 243 95.5 L 243 64 L 238.5 64 L 238.5 63 Z " /><path fill="rgb(153,171,184)" stroke="rgb(153,171,184)" stroke-width="1" opacity="0.9725490196078431" d="M 312.5 70 L 313 75.5 L 312 75.5 L 312.5 70 Z " /><path fill="rgb(153,171,184)" stroke="rgb(153,171,184)" stroke-width="1" opacity="0.9725490196078431" d="M 232.5 143 Q 234.7 150.3 240.5 154 L 244 155.5 L 242.5 156 L 237 153 L 237 151 Q 234.3 152.1 235 149.5 L 232 144.5 L 232.5 143 Z " /><path fill="rgb(153,171,184)" stroke="rgb(153,171,184)" stroke-width="1" opacity="0.9725490196078431" d="M 256.5 155 L 263.5 156 L 266.5 155 L 272 162.5 L 270 161.5 L 269.5 160 L 269 162.5 L 276.5 177 L 278 176.5 L 277 179.5 L 280 180.5 L 280.5 185 L 281.5 183 L 296 206.5 L 296 208.5 L 293.5 211 L 295 208.5 L 294 207.5 Q 279 192.5 268 173.5 L 268.5 172 L 266 170.5 L 258.5 156 Q 255.5 156.5 256.5 155 Z M 273 170 L 272 173 L 273 173 L 273 170 Z " /><path fill="rgb(153,171,184)" stroke="rgb(153,171,184)" stroke-width="1" opacity="0.9725490196078431" d="M 245.5 156 L 254 156.5 L 245.5 157 L 245.5 156 Z " /><path fill="rgb(153,171,184)" stroke="rgb(153,171,184)" stroke-width="1" opacity="0.9725490196078431" d="M 289.5 212 L 287.5 215 L 280 221.5 L 278 225.5 L 277.5 235 L 277 225.5 L 283.5 216 L 289.5 212 Z " /><path fill="rgb(153,171,184)" stroke="rgb(153,171,184)" stroke-width="1" opacity="0.9725490196078431" d="M 377.5 226 L 378.5 228 L 377.5 226 Z " /><path fill="rgb(153,171,184)" stroke="rgb(153,171,184)" stroke-width="1" opacity="0.9725490196078431" d="M 278.5 236 L 283.5 244 Q 288.2 249.8 300.5 248 L 314.5 239 L 312.5 242 L 308 244 L 307.5 246 Q 306 243.5 304.5 247 Q 300.2 250.7 290.5 249 L 280 241.5 L 278.5 236 Z " /><path fill="rgb(153,171,184)" stroke="rgb(153,171,184)" stroke-width="1" opacity="0.9725490196078431" d="M 317.5 237 Q 323.3 236.3 324 240.5 L 329.5 248 Q 331.8 247.3 331 249.5 L 335.5 255 L 325 244.5 L 325 243 Q 322.3 244.1 323 241.5 L 318.5 238 L 316 239.5 L 317.5 237 Z " /><path fill="rgb(153,171,184)" stroke="rgb(153,171,184)" stroke-width="1" opacity="0.9725490196078431" d="M 336.5 256 L 340 258.5 Q 339.3 260.8 341.5 260 L 360 277.5 L 358.5 278 L 348 268.5 Q 348.8 266.3 346.5 267 L 345 264 L 343.5 264 L 336.5 256 Z " /><path fill="rgb(153,171,184)" stroke="rgb(153,171,184)" stroke-width="1" opacity="0.9725490196078431" d="M 47.5 262 L 46.5 264 L 47.5 262 Z " /><path fill="rgb(153,171,184)" stroke="rgb(153,171,184)" stroke-width="1" opacity="0.9725490196078431" d="M 359.5 280 L 359 281.5 L 356.5 286 L 356 284.5 L 359.5 280 Z " /><path fill="rgb(153,171,184)" stroke="rgb(153,171,184)" stroke-width="1" opacity="0.9725490196078431" d="M 355.5 288 L 356 290.5 L 354 291.5 L 355.5 288 Z " /><path fill="rgb(153,171,184)" stroke="rgb(153,171,184)" stroke-width="1" opacity="0.9725490196078431" d="M 355.5 296 Q 357.1 303.9 363 307.5 L 356 301.5 L 355.5 296 Z " /><path fill="rgb(153,171,184)" stroke="rgb(153,171,184)" stroke-width="1" opacity="0.9725490196078431" d="M 390.5 299 L 417.5 312 L 420.5 312 L 436 318.5 Q 434.3 328.2 438 332.5 L 436 333 L 435 319 L 420.5 313 L 418.5 313 L 390 300 L 385.5 307 L 379.5 310 L 380.5 308 L 382.5 308 L 388 302.5 L 390.5 299 Z " /><path fill="rgb(153,171,184)" stroke="rgb(153,171,184)" stroke-width="1" opacity="0.9725490196078431" d="M 491.5 301 L 508 308 Q 509.5 311.7 506.5 311 Q 498.7 317.2 487.5 320 L 487.5 319 L 506 311 L 504.5 308 L 491.5 302 L 491.5 301 Z " /><path fill="rgb(153,171,184)" stroke="rgb(153,171,184)" stroke-width="1" opacity="0.9725490196078431" d="M 364.5 308 L 367 309.5 L 365.5 310 L 364.5 308 Z " /><path fill="rgb(153,171,184)" stroke="rgb(153,171,184)" stroke-width="1" opacity="0.9725490196078431" d="M 368.5 310 L 377 310.5 L 368.5 311 L 368.5 310 Z " /><path fill="rgb(153,171,184)" stroke="rgb(153,171,184)" stroke-width="1" opacity="0.9725490196078431" d="M 483.5 320 L 486 320.5 L 480.5 323 L 473 324 L 469 334.5 L 463.5 340 L 456.5 342 L 456.5 341 Q 464.8 340.3 468 334.5 L 473.5 323 L 483.5 320 Z " /><path fill="rgb(153,171,184)" stroke="rgb(153,171,184)" stroke-width="1" opacity="0.9725490196078431" d="M 28.5 330 L 35.5 341 L 39 343.5 L 36.5 342 L 32 338.5 L 28 331.5 L 28.5 330 Z " /><path fill="rgb(153,171,184)" stroke="rgb(153,171,184)" stroke-width="1" opacity="0.9725490196078431" d="M 438.5 334 Q 442.1 339.9 450 341.5 L 447.5 342 L 440 338 L 438.5 334 Z " /><path fill="rgb(153,171,184)" stroke="rgb(153,171,184)" stroke-width="1" opacity="0.9725490196078431" d="M 40.5 344 L 43 345.5 L 41.5 346 L 40.5 344 Z " /><path fill="rgb(153,171,184)" stroke="rgb(153,171,184)" stroke-width="1" opacity="0.9725490196078431" d="M 48.5 347 L 60 349.5 L 56.5 350 L 48.5 348 L 48.5 347 Z " /><path fill="rgb(153,171,184)" stroke="rgb(153,171,184)" stroke-width="1" opacity="0.9725490196078431" d="M 62.5 350 L 70 351.5 L 66.5 352 L 62.5 351 L 62.5 350 Z " /><path fill="rgb(153,171,184)" stroke="rgb(153,171,184)" stroke-width="1" opacity="0.9725490196078431" d="M 72.5 352 L 76 352.5 L 72.5 353 L 72.5 352 Z " /><path fill="rgb(153,171,184)" stroke="rgb(153,171,184)" stroke-width="1" opacity="0.9725490196078431" d="M 77.5 353 L 81 353.5 L 77.5 354 L 77.5 353 Z " /><path fill="rgb(153,171,184)" stroke="rgb(153,171,184)" stroke-width="1" opacity="0.9725490196078431" d="M 83.5 354 L 87 354.5 L 83.5 355 L 83.5 354 Z " /><path fill="rgb(153,171,184)" stroke="rgb(153,171,184)" stroke-width="1" opacity="0.9725490196078431" d="M 88.5 355 L 93 355.5 L 88.5 356 L 88.5 355 Z " /><path fill="rgb(153,171,184)" stroke="rgb(153,171,184)" stroke-width="1" opacity="0.9725490196078431" d="M 95.5 356 L 98 356.5 L 95.5 357 L 95.5 356 Z " /><path fill="rgb(153,171,184)" stroke="rgb(153,171,184)" stroke-width="1" opacity="0.9725490196078431" d="M 100.5 357 L 104 357.5 L 100.5 358 L 100.5 357 Z " /><path fill="rgb(153,171,184)" stroke="rgb(153,171,184)" stroke-width="1" opacity="0.9725490196078431" d="M 106.5 358 L 109 358.5 L 106.5 359 L 106.5 358 Z " /><path fill="rgb(153,171,184)" stroke="rgb(153,171,184)" stroke-width="1" opacity="0.9725490196078431" d="M 110.5 359 L 114 359.5 L 110.5 360 L 110.5 359 Z " /><path fill="rgb(153,171,184)" stroke="rgb(153,171,184)" stroke-width="1" opacity="0.9725490196078431" d="M 116.5 360 L 119 360.5 L 116.5 361 L 116.5 360 Z " /><path fill="rgb(153,171,184)" stroke="rgb(153,171,184)" stroke-width="1" opacity="0.9725490196078431" d="M 120.5 361 L 124 361.5 L 120.5 362 L 120.5 361 Z " /><path fill="rgb(153,171,184)" stroke="rgb(153,171,184)" stroke-width="1" opacity="0.9725490196078431" d="M 125.5 362 L 128 362.5 L 125.5 363 L 125.5 362 Z " /><path fill="rgb(153,171,184)" stroke="rgb(153,171,184)" stroke-width="1" opacity="0.9725490196078431" d="M 129.5 363 L 133 363.5 L 129.5 364 L 129.5 363 Z " /><path fill="rgb(153,171,184)" stroke="rgb(153,171,184)" stroke-width="1" opacity="0.9725490196078431" d="M 134.5 364 L 137 364.5 L 134.5 365 L 134.5 364 Z " /><path fill="rgb(153,171,184)" stroke="rgb(153,171,184)" stroke-width="1" opacity="0.9725490196078431" d="M 138.5 365 L 141 365.5 L 138.5 366 L 138.5 365 Z " /><path fill="rgb(153,171,184)" stroke="rgb(153,171,184)" stroke-width="1" opacity="0.9725490196078431" d="M 142.5 366 L 145 366.5 L 142.5 367 L 142.5 366 Z " /><path fill="rgb(153,171,184)" stroke="rgb(153,171,184)" stroke-width="1" opacity="0.9725490196078431" d="M 146.5 367 L 149 367.5 L 146.5 368 L 146.5 367 Z " /><path fill="rgb(153,171,184)" stroke="rgb(153,171,184)" stroke-width="1" opacity="0.9725490196078431" d="M 150.5 368 L 153 368.5 L 150.5 369 L 150.5 368 Z " /><path fill="rgb(153,171,184)" stroke="rgb(153,171,184)" stroke-width="1" opacity="0.9725490196078431" d="M 157.5 370 L 182 377.5 L 180.5 378 L 157.5 371 L 157.5 370 Z " /><path fill="rgb(153,171,184)" stroke="rgb(153,171,184)" stroke-width="1" opacity="0.9725490196078431" d="M 189.5 380 L 194 381.5 L 192.5 382 L 189.5 381 L 189.5 380 Z " /><path fill="rgb(153,171,184)" stroke="rgb(153,171,184)" stroke-width="1" opacity="0.9725490196078431" d="M 198.5 383 L 202 384.5 L 200.5 385 L 198.5 383 Z " /><path fill="rgb(153,171,184)" stroke="rgb(153,171,184)" stroke-width="1" opacity="0.9725490196078431" d="M 206.5 386 L 210 387.5 L 208.5 388 L 206.5 386 Z " /><path fill="rgb(153,171,184)" stroke="rgb(153,171,184)" stroke-width="1" opacity="0.9725490196078431" d="M 214.5 389 L 221 391.5 L 219.5 392 L 214.5 390 L 214.5 389 Z " /><path fill="rgb(153,171,184)" stroke="rgb(153,171,184)" stroke-width="1" opacity="0.9725490196078431" d="M 222.5 392 L 226 393.5 L 224.5 394 L 222.5 392 Z " /><path fill="rgb(153,171,184)" stroke="rgb(153,171,184)" stroke-width="1" opacity="0.9725490196078431" d="M 227.5 394 L 235 397.5 L 233.5 398 L 227.5 395 L 227.5 394 Z " /><path fill="rgb(153,171,184)" stroke="rgb(153,171,184)" stroke-width="1" opacity="0.9725490196078431" d="M 236.5 398 L 240 399.5 L 238.5 400 L 236.5 398 Z " /><path fill="rgb(153,171,184)" stroke="rgb(153,171,184)" stroke-width="1" opacity="0.9725490196078431" d="M 241.5 400 L 249 403.5 L 247.5 403 L 241.5 401 L 241.5 400 Z " /><path fill="rgb(153,171,184)" stroke="rgb(153,171,184)" stroke-width="1" opacity="0.9725490196078431" d="M 250.5 404 L 254 405.5 L 252.5 406 L 250.5 404 Z " /><path fill="rgb(153,171,184)" stroke="rgb(153,171,184)" stroke-width="1" opacity="0.9725490196078431" d="M 262.5 409 L 274 413.5 L 272.5 414 L 262.5 410 L 262.5 409 Z " /><path fill="rgb(153,171,184)" stroke="rgb(153,171,184)" stroke-width="1" opacity="0.9725490196078431" d="M 287.5 418 L 293 419.5 L 290.5 420 L 287.5 419 L 287.5 418 Z " /><path fill="rgb(153,171,184)" stroke="rgb(153,171,184)" stroke-width="1" opacity="0.9725490196078431" d="M 294.5 420 L 297 420.5 L 294.5 421 L 294.5 420 Z " /><path fill="rgb(153,171,184)" stroke="rgb(153,171,184)" stroke-width="1" opacity="0.9725490196078431" d="M 298.5 421 L 305 422.5 L 302.5 423 L 298.5 422 L 298.5 421 Z " /><path fill="rgb(153,171,184)" stroke="rgb(153,171,184)" stroke-width="1" opacity="0.9725490196078431" d="M 307.5 423 L 310 423.5 L 307.5 424 L 307.5 423 Z " /><path fill="rgb(153,171,184)" stroke="rgb(153,171,184)" stroke-width="1" opacity="0.9725490196078431" d="M 312.5 424 L 317 424.5 L 312.5 425 L 312.5 424 Z " /><path fill="rgb(153,171,184)" stroke="rgb(153,171,184)" stroke-width="1" opacity="0.9725490196078431" d="M 319.5 425 L 324 425.5 L 319.5 426 L 319.5 425 Z " /><path fill="rgb(153,171,184)" stroke="rgb(153,171,184)" stroke-width="1" opacity="0.9725490196078431" d="M 327.5 426 L 336 426.5 L 327.5 427 L 327.5 426 Z " /><path fill="rgb(153,171,184)" stroke="rgb(153,171,184)" stroke-width="1" opacity="0.9725490196078431" d="M 340.5 427 L 593 427.5 L 340.5 428 L 340.5 427 Z " /><path fill="rgb(153,171,184)" stroke="rgb(153,171,184)" stroke-width="1" opacity="0.9725490196078431" d="M 30.5 462 L 609.5 462 Q 616.3 464.3 620 469.5 L 623 475.5 L 623 483.5 Q 621.1 491.1 615.5 495 L 609.5 498 L 486.5 498 L 472.5 488 L 456.5 482 Q 450.2 482.8 447.5 480 L 423.5 480 L 403.5 486 L 383.5 498 L 148.5 498 L 134.5 488 L 119.5 482 Q 112.8 482.7 109.5 480 L 86.5 480 L 65.5 486 L 46.5 498 L 33.5 498 Q 25 496.5 21 490.5 L 17 483.5 L 17 475.5 Q 19.3 468.8 24.5 465 L 30.5 462 Z " /><path fill="rgb(184,52,79)" stroke="rgb(184,52,79)" stroke-width="1" opacity="0.9254901960784314" d="M 234.5 28 L 265.5 29 L 267 28.5 L 265.5 31 L 255.5 29 L 234.5 29 L 234.5 28 Z " /><path fill="rgb(184,52,79)" stroke="rgb(184,52,79)" stroke-width="1" opacity="0.9254901960784314" d="M 230.5 30 L 229.5 32 L 230.5 30 Z " /><path fill="rgb(184,52,79)" stroke="rgb(184,52,79)" stroke-width="1" opacity="0.9254901960784314" d="M 275.5 30 L 279 30.5 L 275.5 31 L 275.5 30 Z " /><path fill="rgb(184,52,79)" stroke="rgb(184,52,79)" stroke-width="1" opacity="0.9254901960784314" d="M 286.5 31 L 291 31.5 L 286.5 32 L 286.5 31 Z " /><path fill="rgb(184,52,79)" stroke="rgb(184,52,79)" stroke-width="1" opacity="0.9254901960784314" d="M 299.5 32 L 302 32.5 L 299.5 33 L 299.5 32 Z " /><path fill="rgb(184,52,79)" stroke="rgb(184,52,79)" stroke-width="1" opacity="0.9254901960784314" d="M 227.5 33 L 225 36.5 L 224.5 38 L 224 36.5 L 227.5 33 Z " /><path fill="rgb(184,52,79)" stroke="rgb(184,52,79)" stroke-width="1" opacity="0.9254901960784314" d="M 315.5 34 Q 318.8 32.9 318 35.5 L 316.5 35 L 315.5 34 Z " /><path fill="rgb(184,52,79)" stroke="rgb(184,52,79)" stroke-width="1" opacity="0.9254901960784314" d="M 319.5 35 L 320.5 37 L 319.5 35 Z " /><path fill="rgb(184,52,79)" stroke="rgb(184,52,79)" stroke-width="1" opacity="0.9254901960784314" d="M 222.5 42 L 224 51.5 L 223 51.5 L 222.5 42 Z " /><path fill="rgb(184,52,79)" stroke="rgb(184,52,79)" stroke-width="1" opacity="0.9254901960784314" d="M 224.5 53 L 227 54 L 228 57.5 L 226 56.5 L 224.5 53 Z " /><path fill="rgb(184,52,79)" stroke="rgb(184,52,79)" stroke-width="1" opacity="0.9254901960784314" d="M 229.5 58 L 233 60.5 L 231.5 60 L 229.5 58 Z " /><path fill="rgb(184,52,79)" stroke="rgb(184,52,79)" stroke-width="1" opacity="0.9254901960784314" d="M 238.5 62 L 255.5 63 L 258 64.5 L 256.5 65 L 255.5 64 L 238.5 63 L 238.5 62 Z " /><path fill="rgb(184,52,79)" stroke="rgb(184,52,79)" stroke-width="1" opacity="0.9254901960784314" d="M 268.5 65 L 274 65.5 L 268.5 66 L 268.5 65 Z " /><path fill="rgb(184,52,79)" stroke="rgb(184,52,79)" stroke-width="1" opacity="0.9254901960784314" d="M 281.5 66 L 284 66.5 L 281.5 67 L 281.5 66 Z " /><path fill="rgb(184,52,79)" stroke="rgb(184,52,79)" stroke-width="1" opacity="0.9254901960784314" d="M 291.5 67 L 296 67.5 L 291.5 68 L 291.5 67 Z " /><path fill="rgb(184,52,79)" stroke="rgb(184,52,79)" stroke-width="1" opacity="0.9254901960784314" d="M 303.5 68 L 308 68.5 L 303.5 69 L 303.5 68 Z " /><path fill="rgb(184,52,79)" stroke="rgb(184,52,79)" stroke-width="1" opacity="0.9254901960784314" d="M 316.5 108 L 320 108.5 L 316.5 109 L 316.5 108 Z " /><path fill="rgb(184,52,79)" stroke="rgb(184,52,79)" stroke-width="1" opacity="0.9254901960784314" d="M 308.5 109 L 311 109.5 L 308.5 110 L 308.5 109 Z " /><path fill="rgb(184,52,79)" stroke="rgb(184,52,79)" stroke-width="1" opacity="0.9254901960784314" d="M 298.5 111 L 301 111.5 L 298.5 112 L 298.5 111 Z " /><path fill="rgb(184,52,79)" stroke="rgb(184,52,79)" stroke-width="1" opacity="0.9254901960784314" d="M 265.5 117 L 269 117.5 L 265.5 118 L 265.5 117 Z " /><path fill="rgb(184,52,79)" stroke="rgb(184,52,79)" stroke-width="1" opacity="0.9254901960784314" d="M 259.5 118 L 262 118.5 Q 259.1 122.1 251.5 121 L 251.5 120 Q 257.5 121 259.5 118 Z " /><path fill="rgb(184,52,79)" stroke="rgb(184,52,79)" stroke-width="1" opacity="0.9254901960784314" d="M 241.5 123 L 240.5 125 L 236.5 128 L 239.5 124 L 241.5 123 Z " /><path fill="rgb(184,52,79)" stroke="rgb(184,52,79)" stroke-width="1" opacity="0.9254901960784314" d="M 235.5 129 L 235 130.5 L 234.5 132 L 234 130.5 L 235.5 129 Z " /><path fill="rgb(184,52,79)" stroke="rgb(184,52,79)" stroke-width="1" opacity="0.9254901960784314" d="M 232.5 137 L 233 140.5 L 232 140.5 L 232.5 137 Z " /><path fill="rgb(184,52,79)" stroke="rgb(184,52,79)" stroke-width="1" opacity="0.9254901960784314" d="M 326.5 140 L 328 140.5 L 325.5 142 L 326.5 140 Z " /><path fill="rgb(184,52,79)" stroke="rgb(184,52,79)" stroke-width="1" opacity="0.9254901960784314" d="M 309.5 145 L 312 145.5 L 309.5 146 L 309.5 145 Z " /><path fill="rgb(184,52,79)" stroke="rgb(184,52,79)" stroke-width="1" opacity="0.9254901960784314" d="M 235.5 148 L 242 153.5 L 240.5 154 L 235.5 148 Z " /><path fill="rgb(184,52,79)" stroke="rgb(184,52,79)" stroke-width="1" opacity="0.9254901960784314" d="M 281.5 150 L 285 150.5 L 281.5 151 L 281.5 150 Z " /><path fill="rgb(184,52,79)" stroke="rgb(184,52,79)" stroke-width="1" opacity="0.9254901960784314" d="M 259.5 153 L 268.5 153 L 269 154.5 L 267.5 154 L 257.5 155 L 257.5 154 L 259.5 153 Z " /><path fill="rgb(184,52,79)" stroke="rgb(184,52,79)" stroke-width="1" opacity="0.9254901960784314" d="M 243.5 154 L 247 155.5 L 245.5 156 L 243.5 154 Z " /><path fill="rgb(184,52,79)" stroke="rgb(184,52,79)" stroke-width="1" opacity="0.9254901960784314" d="M 248.5 155 L 255 155.5 L 248.5 156 L 248.5 155 Z " /><path fill="rgb(184,52,79)" stroke="rgb(184,52,79)" stroke-width="1" opacity="0.9254901960784314" d="M 342.5 180 L 348 180.5 L 342.5 181 L 342.5 180 Z " /><path fill="rgb(184,52,79)" stroke="rgb(184,52,79)" stroke-width="1" opacity="0.9254901960784314" d="M 334.5 183 L 333.5 185 L 334.5 183 Z " /><path fill="rgb(184,52,79)" stroke="rgb(184,52,79)" stroke-width="1" opacity="0.9254901960784314" d="M 330.5 186 L 329.5 188 L 328 187.5 L 330.5 186 Z " /><path fill="rgb(184,52,79)" stroke="rgb(184,52,79)" stroke-width="1" opacity="0.9254901960784314" d="M 325.5 189 L 324.5 191 L 325.5 189 Z " /><path fill="rgb(184,52,79)" stroke="rgb(184,52,79)" stroke-width="1" opacity="0.9254901960784314" d="M 322.5 191 L 321.5 193 L 322.5 191 Z " /><path fill="rgb(184,52,79)" stroke="rgb(184,52,79)" stroke-width="1" opacity="0.9254901960784314" d="M 310.5 199 L 309.5 201 L 310.5 199 Z " /><path fill="rgb(184,52,79)" stroke="rgb(184,52,79)" stroke-width="1" opacity="0.9254901960784314" d="M 307.5 201 L 306.5 203 L 307.5 201 Z " /><path fill="rgb(184,52,79)" stroke="rgb(184,52,79)" stroke-width="1" opacity="0.9254901960784314" d="M 302.5 204 L 301.5 206 L 302.5 204 Z " /><path fill="rgb(184,52,79)" stroke="rgb(184,52,79)" stroke-width="1" opacity="0.9254901960784314" d="M 299.5 206 L 298.5 208 L 296.5 209 L 297.5 207 L 299.5 206 Z " /><path fill="rgb(184,52,79)" stroke="rgb(184,52,79)" stroke-width="1" opacity="0.9254901960784314" d="M 358.5 209 L 356.5 212 L 358.5 209 Z " /><path fill="rgb(184,52,79)" stroke="rgb(184,52,79)" stroke-width="1" opacity="0.9254901960784314" d="M 294.5 210 L 293.5 212 L 292 211.5 L 294.5 210 Z " /><path fill="rgb(184,52,79)" stroke="rgb(184,52,79)" stroke-width="1" opacity="0.9254901960784314" d="M 289.5 213 L 287.5 216 L 281.5 221 L 286.5 215 L 289.5 213 Z " /><path fill="rgb(184,52,79)" stroke="rgb(184,52,79)" stroke-width="1" opacity="0.9254901960784314" d="M 348.5 216 L 347.5 218 L 348.5 216 Z " /><path fill="rgb(184,52,79)" stroke="rgb(184,52,79)" stroke-width="1" opacity="0.9254901960784314" d="M 342.5 220 L 341.5 222 L 342.5 220 Z " /><path fill="rgb(184,52,79)" stroke="rgb(184,52,79)" stroke-width="1" opacity="0.9254901960784314" d="M 330.5 228 L 329.5 230 L 330.5 228 Z " /><path fill="rgb(184,52,79)" stroke="rgb(184,52,79)" stroke-width="1" opacity="0.9254901960784314" d="M 324.5 232 L 323.5 234 L 324.5 232 Z " /><path fill="rgb(184,52,79)" stroke="rgb(184,52,79)" stroke-width="1" opacity="0.9254901960784314" d="M 317.5 236 L 316.5 238 L 317.5 236 Z " /><path fill="rgb(184,52,79)" stroke="rgb(184,52,79)" stroke-width="1" opacity="0.9254901960784314" d="M 399.5 236 L 406 236.5 L 399.5 237 L 399.5 236 Z " /><path fill="rgb(184,52,79)" stroke="rgb(184,52,79)" stroke-width="1" opacity="0.9254901960784314" d="M 314.5 238 L 313.5 240 L 312 239.5 L 314.5 238 Z " /><path fill="rgb(184,52,79)" stroke="rgb(184,52,79)" stroke-width="1" opacity="0.9254901960784314" d="M 308.5 242 L 307.5 244 L 308.5 242 Z " /><path fill="rgb(184,52,79)" stroke="rgb(184,52,79)" stroke-width="1" opacity="0.9254901960784314" d="M 387.5 243 L 385.5 246 L 387.5 243 Z " /><path fill="rgb(184,52,79)" stroke="rgb(184,52,79)" stroke-width="1" opacity="0.9254901960784314" d="M 285.5 244 L 286.5 246 L 285.5 244 Z " /><path fill="rgb(184,52,79)" stroke="rgb(184,52,79)" stroke-width="1" opacity="0.9254901960784314" d="M 305.5 244 L 304.5 246 L 305.5 244 Z " /><path fill="rgb(184,52,79)" stroke="rgb(184,52,79)" stroke-width="1" opacity="0.9254901960784314" d="M 295.5 247 L 300 247.5 L 295.5 248 L 295.5 247 Z " /><path fill="rgb(184,52,79)" stroke="rgb(184,52,79)" stroke-width="1" opacity="0.9254901960784314" d="M 378.5 255 L 376.5 258 L 378.5 255 Z " /><path fill="rgb(184,52,79)" stroke="rgb(184,52,79)" stroke-width="1" opacity="0.9254901960784314" d="M 416.5 263 L 415.5 265 L 416.5 263 Z " /><path fill="rgb(184,52,79)" stroke="rgb(184,52,79)" stroke-width="1" opacity="0.9254901960784314" d="M 370.5 266 L 368.5 269 L 370.5 266 Z " /><path fill="rgb(184,52,79)" stroke="rgb(184,52,79)" stroke-width="1" opacity="0.9254901960784314" d="M 414.5 266 L 413 268.5 L 411.5 271 L 412 269.5 L 414.5 266 Z " /><path fill="rgb(184,52,79)" stroke="rgb(184,52,79)" stroke-width="1" opacity="0.9254901960784314" d="M 364.5 274 L 363.5 276 L 364.5 274 Z " /><path fill="rgb(184,52,79)" stroke="rgb(184,52,79)" stroke-width="1" opacity="0.9254901960784314" d="M 406.5 277 L 405.5 279 L 406.5 277 Z " /><path fill="rgb(184,52,79)" stroke="rgb(184,52,79)" stroke-width="1" opacity="0.9254901960784314" d="M 451.5 280 L 450.5 282 L 451.5 280 Z " /><path fill="rgb(184,52,79)" stroke="rgb(184,52,79)" stroke-width="1" opacity="0.9254901960784314" d="M 449.5 283 L 448.5 285 L 449.5 283 Z " /><path fill="rgb(184,52,79)" stroke="rgb(184,52,79)" stroke-width="1" opacity="0.9254901960784314" d="M 399.5 286 L 398.5 288 L 399.5 286 Z " /><path fill="rgb(184,52,79)" stroke="rgb(184,52,79)" stroke-width="1" opacity="0.9254901960784314" d="M 391.5 297 L 389.5 300 L 388 299.5 L 391.5 297 Z " /><path fill="rgb(184,52,79)" stroke="rgb(184,52,79)" stroke-width="1" opacity="0.9254901960784314" d="M 357.5 299 L 359 301.5 L 357 300.5 L 357.5 299 Z " /><path fill="rgb(184,52,79)" stroke="rgb(184,52,79)" stroke-width="1" opacity="0.9254901960784314" d="M 387.5 301 L 388 302.5 L 383 306.5 L 383.5 304 Q 384.7 306.3 386 303.5 L 387.5 301 Z " /><path fill="rgb(184,52,79)" stroke="rgb(184,52,79)" stroke-width="1" opacity="0.9254901960784314" d="M 359.5 303 L 365 307.5 L 363.5 307 L 359.5 303 Z " /><path fill="rgb(184,52,79)" stroke="rgb(184,52,79)" stroke-width="1" opacity="0.9254901960784314" d="M 368.5 309 L 371 309.5 L 368.5 310 L 368.5 309 Z " /><path fill="rgb(184,52,79)" stroke="rgb(184,52,79)" stroke-width="1" opacity="0.9254901960784314" d="M 373.5 309 L 378 309.5 L 373.5 310 L 373.5 309 Z " /><path fill="rgb(184,52,79)" stroke="rgb(184,52,79)" stroke-width="1" opacity="0.9254901960784314" d="M 439.5 310 L 439 311.5 L 438.5 313 L 438 311.5 L 439.5 310 Z " /><path fill="rgb(184,52,79)" stroke="rgb(184,52,79)" stroke-width="1" opacity="0.9254901960784314" d="M 436.5 318 L 437 327.5 L 436 327.5 L 436.5 318 Z " /><path fill="rgb(184,52,79)" stroke="rgb(184,52,79)" stroke-width="1" opacity="0.9254901960784314" d="M 437.5 329 L 439 332.5 L 438 332.5 L 437.5 329 Z " /><path fill="rgb(184,52,79)" stroke="rgb(184,52,79)" stroke-width="1" opacity="0.9254901960784314" d="M 468.5 332 L 467.5 334 L 468.5 332 Z " /><path fill="rgb(184,52,79)" stroke="rgb(184,52,79)" stroke-width="1" opacity="0.9254901960784314" d="M 439.5 334 L 446 339.5 L 444.5 339 L 439.5 334 Z " /><path fill="rgb(184,52,79)" stroke="rgb(184,52,79)" stroke-width="1" opacity="0.9254901960784314" d="M 464.5 336 L 461.5 340 L 456.5 341 L 456.5 340 Q 462.5 340 464.5 336 Z " /><path fill="rgb(0,0,0)" stroke="rgb(0,0,0)" stroke-width="1" opacity="0" d="M 0 0 L 291 0.5 L 274.5 16 L 268 12 L 266.5 9 L 258.5 3 L 249.5 3 L 221.5 10 L 167.5 30 Q 107 55.7 51 85 L 58 106.5 L 58 110.5 L 60 114.5 L 60 118.5 L 65 136.5 L 67 155.5 L 68 156.5 L 69 175.5 L 68 176.5 L 68 187.5 L 67 188.5 L 67 197.5 L 66 198.5 L 65 209.5 L 57 244.5 Q 42.5 268 31 294.5 L 26 310.5 L 26 326.5 L 28 330.5 L 25 339.5 L 22 362.5 L 21 363.5 L 21 371.5 L 20 372.5 L 20 398.5 L 33 444.5 L 35 462 L 27.5 463 L 20 469.5 L 17 475.5 L 17 483.5 L 18 484.5 Q 16.8 492.7 19 497.5 Q 22.7 507.8 30 514.5 L 30 516.5 Q 22.4 526.4 19 540.5 L 17 551.5 L 17 567.5 L 18 568.5 L 19 579.5 L 26 597.5 Q 33.4 611.1 44.5 621 Q 59.4 635.1 84 639.5 L 0 640 L 0 0 Z " /><path fill="rgb(0,0,0)" stroke="rgb(0,0,0)" stroke-width="1" opacity="0" d="M 296.5 0 L 640 0 L 640 640 L 449 639.5 Q 465.1 637.1 476.5 630 Q 488.8 622.3 498 611.5 Q 509 599 514 580.5 L 516 570.5 L 516 549.5 L 511 530.5 L 503 515.5 L 514.5 498 Q 518.3 496.8 517 500.5 Q 521.4 513.6 531 521.5 L 529 527.5 L 529 533.5 L 531 543.5 L 537 556.5 L 554.5 578 L 557.5 580 Q 562.1 585.9 569.5 589 L 579.5 590 L 591.5 583 L 624 550.5 L 632 538.5 L 632 529.5 L 628 521.5 L 612.5 505 L 604 498.5 Q 615.8 498.3 620 490.5 Q 624.2 485.7 623 475.5 Q 620.8 468.8 615.5 465 L 609.5 462 L 593 461.5 L 600 457.5 L 603 448.5 L 603 439.5 L 600 431.5 L 597.5 429 L 593 427.5 Q 605.8 410.8 603 378.5 L 598 356.5 Q 595.9 349.1 590.5 345 L 564.5 330 L 490.5 301 L 482 296.5 L 483 292.5 L 482 287.5 L 477 279 L 468.5 275 L 459.5 275 L 450.5 281 L 419 260 L 420 252.5 L 418 245.5 L 412.5 239 Q 407.7 234.3 396.5 236 L 391.5 238 L 360 210.5 L 360 207.5 L 363 201.5 L 363 194.5 L 356.5 184 Q 352 179 343 180 L 327 141.5 Q 335.2 136.2 334 121.5 Q 331.8 114.8 326.5 111 L 317 108 L 314 93.5 L 313 69 Q 322.1 68.4 326 61.5 Q 329.9 57.4 329 48.5 Q 327.6 41 322.5 37 L 318 35 L 319 30.5 L 327 16 L 304.5 3 L 296.5 1 L 296.5 0 Z " /><path fill="rgb(0,0,0)" stroke="rgb(0,0,0)" stroke-width="1" opacity="0" d="M 155 411 L 173.5 414 L 191.5 420 Q 230.3 437.2 272.5 451 L 298.5 458 L 322 461.5 L 145 462 L 155 411 Z " /><path fill="rgb(0,0,0)" stroke="rgb(0,0,0)" stroke-width="1" opacity="0" d="M 176.5 498 L 356.5 498 L 358 499.5 L 368 516.5 Q 360.6 526.1 357 539.5 L 355 549.5 L 355 570.5 L 357 580.5 L 364 598.5 Q 371.8 612.2 383.5 622 Q 398.1 635.4 422 639.5 L 111.5 640 L 111.5 639 L 116.5 639 L 123.5 637 L 138.5 630 Q 151.6 622.1 161 610.5 Q 170.9 598.4 176 581.5 L 178 572.5 L 178 547.5 Q 174.8 528.2 165 515.5 Q 172.5 508.5 176.5 498 Z " /><path fill="rgb(136,201,249)" stroke="rgb(136,201,249)" stroke-width="1" opacity="0.996078431372549" d="M 249.5 3 L 256 3 L 256 6.5 Q 252.9 8.3 254.5 10 L 253 10.5 L 253.5 14 L 252 13.5 L 252 8 L 248 8 Q 249.1 5.3 246.5 6 L 240.5 9 L 237.5 8 L 232 11 L 232 16 L 230 16 Q 231.7 10.8 228 12 Q 229.8 18.1 226.5 20 Q 226.7 15.3 223.5 14 L 216.5 13 L 215.5 15 L 219.5 15 Q 220.6 17.7 224 17 Q 225.6 21.9 220 20 L 220 26.5 L 218 27.5 Q 219.3 22.7 216 24 L 216 32 L 204 32 L 204 24 L 208 24 L 208 26 L 214 26 Q 213.3 22.9 216 23.5 L 216 17.5 Q 215.3 14.3 210.5 15 L 208 19 Q 202.5 17.8 201 21.5 L 202 24 L 196.5 23 Q 195 26.5 188.5 25 L 186.5 24 L 180.5 28 L 173 29.5 L 179.5 30 L 181 31.5 Q 181.8 33.8 179.5 33 L 174.5 31 L 171.5 32 L 169.5 31 L 166 32 L 166 35.5 Q 162.7 34.7 164 40 L 160.5 40 L 162 37.5 L 161 36.5 Q 161.8 34.3 159.5 35 L 156 37.5 L 158 41 L 160 41.5 L 160 48 L 152 48 L 152 41.5 L 151.5 39 L 144 42.5 Q 144.8 44.8 142.5 44 Q 141.3 41.8 140 44.5 L 143 47.5 L 141.5 49 Q 137.8 49.8 137 47.5 L 136.5 45 L 134 46.5 L 136 47.5 L 133.5 48 L 131.5 48 L 126 50 Q 127.3 53.7 121.5 52 L 118 54.5 L 119.5 55 L 123.5 54 L 124.5 56 L 115.5 55 L 108 58 L 108.5 60 L 123.5 60 Q 122.7 63.3 128 62 Q 126.8 58.3 132 60 L 132 64 Q 126 62 128 68 L 114.5 68 L 112 67 L 112 84 L 104.5 84 L 104 88 L 96 88 L 96 84 L 89.5 84 L 88 80 L 78.5 82 L 75 76 L 69 77.5 L 70 81 L 76 83 L 76 88 L 80 88 Q 78.8 91 82.5 90 Q 85.3 91.4 84 96 L 80 96.5 L 80 179.5 L 79.5 180 L 73 180 L 73 183.5 L 72 188 Q 67.1 186.2 69 192.5 L 67 202.5 L 68 204.5 L 65 216 Q 68.3 214.7 67 219.5 L 66.5 222 L 63 223.5 L 61 236.5 L 62 238.5 L 60.5 241 L 58 239.5 L 62 225.5 L 67 197.5 L 69 166.5 L 68 165.5 L 67 147.5 L 62 126.5 L 62 121.5 L 60 118.5 L 60 113.5 L 55 95.5 L 53 92.5 L 52 85 Q 109.5 54.2 172.5 28 L 218.5 11 L 249.5 3 Z M 252 4 L 252 5 L 255 5 L 252 4 Z M 249 5 L 249 6 L 251 6 L 249 5 Z M 105 60 L 101 63 L 102 65 L 108 66 L 108 60 L 105 60 Z M 97 64 L 93 67 L 98 68 L 99 66 L 97 64 Z M 98 68 L 98 76 L 94 75 L 94 80 Q 100 78 98 84 L 104 84 Q 102 79 106 80 L 106 73 Q 103 73 104 68 L 98 68 Z M 89 69 L 87 70 L 87 72 L 87 73 L 91 73 Q 93 68 89 69 Z M 81 72 L 76 75 L 79 76 L 82 75 Q 83 71 81 72 Z M 65 80 L 60 83 Q 61 85 66 84 L 67 82 L 65 80 Z M 58 84 L 54 88 L 56 88 Q 57 92 59 89 Q 60 85 58 84 Z M 66 84 Q 67 89 64 91 Q 66 96 60 94 Q 59 98 64 96 L 64 100 L 66 100 Q 67 103 65 102 L 62 104 L 62 100 L 58 98 L 58 95 L 56 96 L 60 111 L 62 112 Q 60 106 64 107 L 65 110 L 64 112 L 65 116 L 65 124 L 64 125 L 65 133 L 66 133 L 66 130 Q 71 131 71 128 L 74 128 L 74 121 L 72 120 L 72 113 L 74 112 L 74 105 L 72 104 L 72 97 L 74 96 L 74 89 Q 71 89 72 84 L 66 84 Z M 67 135 L 66 139 L 67 139 L 67 135 Z M 69 141 L 69 150 L 68 151 L 69 153 Q 67 158 72 157 L 73 156 L 73 147 L 74 146 L 74 141 L 69 141 Z M 71 163 Q 70 166 73 165 Q 74 162 71 163 Z M 70 167 Q 69 170 72 169 Q 73 166 70 167 Z M 70 170 L 70 176 L 72 176 L 72 170 L 70 170 Z " /><path fill="rgb(136,201,249)" stroke="rgb(136,201,249)" stroke-width="1" opacity="0.996078431372549" d="M 234 16 Q 237.7 14.8 236 20 L 240 20 Q 238 14 244 16 L 244 23 L 234.5 23 L 234 26 L 238 24 Q 236.7 27.3 241.5 26 Q 243 23.5 248.5 25 L 250 23.5 L 249 19.5 L 250 19.5 L 251 23.5 L 250 27 L 234.5 27 L 231.5 29 L 231 27 L 233 26.5 Q 227.6 27.4 226 24.5 L 226.5 22 L 227.5 23 L 234 23 L 234 16 Z " /><path fill="rgb(136,201,249)" stroke="rgb(136,201,249)" stroke-width="1" opacity="0.996078431372549" d="M 227.5 28 L 230 29.5 L 224 34.5 L 223.5 36 L 223 32 L 226 30.5 L 227.5 28 Z " /><path fill="rgb(136,201,249)" stroke="rgb(136,201,249)" stroke-width="1" opacity="0.996078431372549" d="M 221.5 35 L 223 38.5 Q 220 41.5 221 48.5 L 225 56.5 L 223 55.5 Q 218.6 49.9 219 39.5 L 221.5 35 Z " /><path fill="rgb(136,201,249)" stroke="rgb(136,201,249)" stroke-width="1" opacity="0.996078431372549" d="M 170 42 L 175.5 42 Q 174.7 45.3 180 44 L 180 48 L 170 48 L 170 42 Z " /><path fill="rgb(136,201,249)" stroke="rgb(136,201,249)" stroke-width="1" opacity="0.996078431372549" d="M 216.5 46 Q 219.3 45.4 218 51.5 Q 216.5 54.5 215 51.5 Q 214 47 216.5 46 Z " /><path fill="rgb(136,201,249)" stroke="rgb(136,201,249)" stroke-width="1" opacity="0.996078431372549" d="M 218 58 L 226.5 58 L 233 62 Q 231.9 64.7 234.5 64 L 237.5 63 L 243 64.5 L 241 65 L 241 72.5 L 243 73 L 243 74.5 L 241 74.5 L 240.5 84 L 240 65 Q 233.8 65.9 231 64 L 230 70 Q 227 71.3 228 67.5 L 225.5 60 L 225 62 L 218 60 L 218 58 Z " /><path fill="rgb(136,201,249)" stroke="rgb(136,201,249)" stroke-width="1" opacity="0.996078431372549" d="M 239.5 96 L 240 100 Q 235.9 101.3 237 98 Q 239.8 99 239.5 96 Z " /><path fill="rgb(136,201,249)" stroke="rgb(136,201,249)" stroke-width="1" opacity="0.996078431372549" d="M 245.5 112 L 246 114.5 L 245 114.5 L 245.5 112 Z " /><path fill="rgb(136,201,249)" stroke="rgb(136,201,249)" stroke-width="1" opacity="0.996078431372549" d="M 246.5 117 L 247 119.5 L 236 125 L 232 132.5 L 232 144.5 L 232.5 147 L 234 147.5 L 232.5 148 L 231 146.5 L 231 128.5 L 233 128.5 L 240.5 120 L 242.5 121 L 242.5 119 Q 247 120.3 246.5 117 Z " /><path fill="rgb(136,201,249)" stroke="rgb(136,201,249)" stroke-width="1" opacity="0.996078431372549" d="M 230 118 Q 235.2 115.9 234 120.5 L 230 122 L 230 118 Z " /><path fill="rgb(136,201,249)" stroke="rgb(136,201,249)" stroke-width="1" opacity="0.996078431372549" d="M 234.5 149 L 235 151 Q 238 150 237 153 L 232.5 154 L 233 152.5 L 234.5 149 Z " /><path fill="rgb(136,201,249)" stroke="rgb(136,201,249)" stroke-width="1" opacity="0.996078431372549" d="M 238.5 153 Q 242.5 158.5 253.5 157 L 257.5 156 L 257.5 157 L 256 157.5 L 258.5 159 L 259.5 157 L 260 158.5 L 258.5 161 L 253.5 158 L 249 158.5 L 251 159.5 L 248.5 161 L 246.5 161 L 236 160 Q 236.8 156.6 234 155.5 L 239 154.5 L 238.5 153 Z " /><path fill="rgb(136,201,249)" stroke="rgb(136,201,249)" stroke-width="1" opacity="0.996078431372549" d="M 261.5 161 L 264 169 L 266 169.5 L 265.5 171 L 268 172.5 L 269 174.5 L 268.5 176 L 271 177.5 L 269 178.5 L 273 180.5 L 277 186.5 Q 275.3 189.8 273.5 186 Q 270.9 186.7 272 184 L 274 183.5 L 268 178.5 Q 268.5 174.5 265.5 174 L 264 174 L 264 170 L 262.5 170 L 260 164.5 L 261.5 161 Z " /><path fill="rgb(136,201,249)" stroke="rgb(136,201,249)" stroke-width="1" opacity="0.996078431372549" d="M 277.5 188 Q 280.7 189.3 280.5 194 L 281.5 193 L 286 197.5 L 284 197.5 Q 283.3 199.8 285.5 199 L 294 206.5 L 295 208.5 L 286.5 214 L 285.5 212 Q 288.8 213.1 288 210.5 L 289 208 L 292 206.5 L 290.5 204 L 288.5 207 L 285.5 206 L 282.5 212 Q 278.8 212.8 278 210.5 Q 275.8 203.8 282.5 206 L 284 206.5 Q 285.2 201.9 280 204 L 280 200 L 276 200 L 276 196.5 L 275 191.5 L 278 189.5 L 277.5 188 Z M 282 194 L 280 196 L 282 196 L 282 194 Z " /><path fill="rgb(136,201,249)" stroke="rgb(136,201,249)" stroke-width="1" opacity="0.996078431372549" d="M 69 202 L 73 202 L 73 203.5 L 70.5 205 L 69 202 Z " /><path fill="rgb(136,201,249)" stroke="rgb(136,201,249)" stroke-width="1" opacity="0.996078431372549" d="M 284.5 214 L 282.5 217 Q 280.3 216.3 281 218.5 L 280 221 Q 276.7 219.7 278 224.5 Q 274.5 226 277 227.5 L 278 236.5 L 277 238.5 L 279 238.5 L 283 244.5 L 280 246.5 L 280 248 L 276 248 Q 276.8 243.5 274 241.5 L 274 234.5 Q 271.2 233.4 272 230 Q 274.7 228.9 274 231.5 L 275 231.5 L 276 218 L 278.5 218 L 284.5 214 Z " /><path fill="rgb(136,201,249)" stroke="rgb(136,201,249)" stroke-width="1" opacity="0.996078431372549" d="M 63.5 232 L 66 236 Q 60.9 237.6 63.5 232 Z " /><path fill="rgb(136,201,249)" stroke="rgb(136,201,249)" stroke-width="1" opacity="0.996078431372549" d="M 318.5 238 L 323 241.5 L 325 244.5 L 343.5 264 Q 345.8 263.3 345 265.5 L 348 267 L 351 271.5 L 347 273.5 L 352.5 274 L 352.5 272 L 360 278 L 356 284.5 L 354 291.5 L 356 301.5 L 362.5 308 L 368.5 311 Q 375.9 309.6 378.5 313 L 379.5 311 L 377 310.5 Q 384.1 310.1 387 305.5 L 390 300 L 417 312.5 L 412 313 Q 413.1 310.3 410.5 311 L 407.5 309 L 398.5 307 L 396 308 Q 397.5 304.3 394.5 305 L 390.5 303 Q 391 308.5 387.5 310 L 382 311.5 Q 383.3 315.8 388 315 L 388 320 L 380.5 320 L 380 324 L 372 324 L 372 320 L 364 320 L 364 316.5 L 363 312.5 L 360.5 310 Q 357.1 310.9 359 305.5 L 356 303.5 Q 357.9 308.9 354.5 308 L 351 305.5 L 351 299.5 Q 353.8 298.7 353 294.5 L 352 290.5 L 353 287 Q 356.3 288.3 355 283.5 L 354 278.5 L 355.5 276 L 349.5 277 L 342 274 Q 343 271 340 272 L 340 268.5 L 339 266.5 L 341.5 263 L 339.5 262 L 336.5 267 L 333 262 L 338 261 L 336.5 258 Q 333.9 258.8 335 255.5 L 333 256.5 L 332.5 258 L 332 254.5 L 332.5 253 L 327.5 249 L 328 250.5 L 327 253.5 L 330 258 Q 324.7 259.3 325.5 256 L 288.5 256 L 288 255.5 L 288 249 L 286.5 249 L 286.5 248 L 300.5 249 L 306.5 245 L 308 245.5 Q 307.3 243.3 309.5 244 L 315.5 239 Q 317 241.5 318.5 238 Z M 310 246 L 310 248 L 313 248 L 310 246 Z M 318 246 L 318 248 L 322 250 Q 324 244 318 246 Z M 347 268 Q 345 271 348 270 L 347 268 Z " /><path fill="rgb(136,201,249)" stroke="rgb(136,201,249)" stroke-width="1" opacity="0.996078431372549" d="M 57 241 L 60 242.5 L 61.5 245 L 64.5 244 Q 67.3 245.4 66 250 Q 61.4 251.3 60 248.5 L 61 245.5 L 58 244 L 56 249.5 L 57 253.5 L 53 256.5 Q 51.9 259.8 54.5 259 L 59.5 264 L 64 264 Q 62.8 267.7 68 266 L 68 272 L 60 272 Q 61.7 277.2 58 276 Q 59.3 270.7 56 271.5 L 56 267.5 L 51 261 Q 48 259.8 49 263.5 L 48 265.5 L 48 267.5 L 48 275.5 Q 50.7 274.9 50 278 L 48 278 Q 49.7 283.2 46 282 L 45 274 Q 41.3 272.5 42 275.5 L 40 279.5 L 41 284 L 48 284 L 48 294 L 40 296 L 38 304 Q 34.3 302.8 36 308 L 31 308 L 29.5 304 L 29 308.5 L 30 309.5 L 30 326.5 L 33.5 333 L 34 330 Q 37 328.8 36 332.5 Q 39 333.8 38 338 Q 41.8 339 43 336.5 L 42 332 L 48 332 L 48 340 Q 53.6 338.1 52 343 L 45.5 343 L 45 344.5 L 46.5 346 Q 53.9 345.1 57.5 348 L 67.5 348 L 70 347.5 L 71 344 Q 75.1 342.7 74 346 Q 71 345 72 348 L 76 348 Q 74.3 352.5 79.5 351 L 81.5 353 L 92 353.5 Q 91.3 355.8 87.5 355 L 65.5 350 L 60.5 350 L 51.5 347 L 46.5 347 Q 38.8 344.8 34 339.5 L 31 335.5 L 33 334.5 L 30 334 L 26 326.5 L 26 311.5 L 35 285.5 L 57 244.5 L 57 241 Z M 38 285 L 36 288 L 38 289 L 38 285 Z M 32 299 L 31 302 L 32 302 L 32 299 Z " /><path fill="rgb(136,201,249)" stroke="rgb(136,201,249)" stroke-width="1" opacity="0.996078431372549" d="M 284.5 245 L 285.5 247 L 284.5 245 Z " /><path fill="rgb(136,201,249)" stroke="rgb(136,201,249)" stroke-width="1" opacity="0.996078431372549" d="M 506.5 307 L 564.5 330 L 586.5 342 L 593 347.5 L 598 356.5 Q 598 363.5 601 367.5 L 601 372.5 L 603 379.5 L 603 400.5 L 598 419.5 L 594 427 L 336.5 427 L 335.5 426 L 324.5 426 L 323 424.5 L 325.5 424 L 327 424.5 L 327.5 423 L 334.5 423 L 343.5 425 L 345.5 424 L 348.5 425 L 349.5 424 L 359.5 424 L 359.5 426 Q 367 427.5 370 424.5 L 368 423.5 L 378.5 423 L 378.5 424 L 376 424.5 L 377.5 426 L 390.5 426 L 391.5 424 L 390 423.5 L 410.5 423 L 410.5 424 L 408 424.5 L 409.5 426 L 422.5 426 L 423.5 424 L 422 423.5 L 442.5 423 L 442.5 424 L 440 424.5 L 441.5 426 L 454.5 426 L 455.5 424 L 454 423.5 L 474.5 423 L 474.5 424 L 472 424.5 L 473.5 426 L 486.5 426 L 487.5 424 L 486 423.5 L 506.5 423 L 506.5 424 L 504 424.5 L 505.5 426 L 518.5 426 L 519.5 424 L 518 423.5 L 538.5 423 L 538.5 424 L 536 424.5 L 537.5 426 L 550.5 426 L 551.5 424 L 550 423.5 L 570.5 423 L 570.5 424 L 568 424.5 L 569.5 426 L 584.5 426 L 583.5 424 L 576 423 L 576.5 420 L 590.5 420 L 591 418.5 L 590 416.5 L 591.5 417 L 594 418.5 Q 595.1 421.8 592.5 421 Q 589.5 422.5 592.5 424 L 595 422.5 L 596 415 Q 598.7 416.1 598 413.5 L 600 406.5 L 599 404.5 L 599 402.5 L 600 385.5 L 599 384.5 L 599 378 Q 601.7 379.1 601 376.5 L 599 365.5 L 596.5 360 L 596 362 Q 592.3 363.4 594 357.5 L 595 353.5 L 589.5 346 Q 585.1 347.5 586 344.5 L 582.5 342 L 581.5 345 L 580 342 Q 575.5 340.3 577 345.5 L 579.5 347 L 582 346 L 582 352 L 576 352 L 576 344.5 L 574 344 L 574 342.5 L 577 341.5 Q 577.8 337.8 575.5 337 L 569.5 336 L 567.5 338 L 556 338 Q 557 341 554 340 L 553.5 336 L 538 336 L 538 328.5 Q 534.8 329.3 536 324 L 528 324 L 526.5 328 L 522 328 L 522 336 L 512 336 L 512 330 L 519.5 330 Q 518.9 327.3 522 328 L 522 319.5 Q 523.6 316.6 529 317.5 Q 527.3 315.3 522.5 316 Q 521.4 318.8 518 318 L 518 316 L 512 316 L 512 320 Q 506.8 318.3 508 322 L 500 322 L 497.5 318 L 493 319 Q 491.9 322.3 496 321 L 496 324 L 490.5 324 Q 491.3 327 487 326 L 486.5 324 L 484.5 324 L 475 325 L 473 331.5 Q 474.2 334 478 333 Q 479.3 337.1 476 336 L 476 339.5 L 472.5 346 Q 468.8 345.3 468 347.5 Q 470 354.3 464 352 Q 465.1 348.7 461 350 L 461 346.5 L 458.5 343 L 448 342.5 L 459.5 342 L 469 334.5 L 473 324 Q 493.2 320.2 508 311 Q 509.5 307.2 506.5 308 L 506.5 307 Z M 512 311 L 512 313 L 517 313 L 512 311 Z M 503 316 L 501 317 L 501 318 Q 505 319 506 317 L 503 316 Z M 535 320 L 535 322 L 537 321 L 535 320 Z M 487 321 L 489 324 Q 491 325 490 323 L 487 321 Z M 548 325 L 542 328 L 545 329 L 550 327 L 548 325 Z M 552 327 L 552 329 L 557 329 L 552 327 Z M 559 329 L 557 333 L 562 335 Q 565 336 566 334 L 559 329 Z M 554 332 Q 553 335 556 334 Q 557 331 554 332 Z M 471 334 L 471 336 L 470 335 L 468 340 L 470 339 L 473 340 Q 475 339 473 338 L 475 337 L 474 336 Q 475 332 471 334 Z M 466 340 L 464 341 L 462 344 L 466 345 Q 467 347 468 345 Q 470 339 466 340 Z " /><path fill="rgb(136,201,249)" stroke="rgb(136,201,249)" stroke-width="1" opacity="0.996078431372549" d="M 396 310 L 404 313.5 L 400 314 L 400 312 Q 394.8 313.7 396 310 Z " /><path fill="rgb(136,201,249)" stroke="rgb(136,201,249)" stroke-width="1" opacity="0.996078431372549" d="M 418.5 313 L 421.5 314 L 425 315.5 L 419.5 316 L 418.5 313 Z " /><path fill="rgb(136,201,249)" stroke="rgb(136,201,249)" stroke-width="1" opacity="0.996078431372549" d="M 426.5 316 L 435 319 L 434 329.5 L 436 329.5 Q 434.5 333.9 437.5 333 L 437.5 334 L 436 334 L 436 338 L 432 338 Q 430 332 431 321.5 L 430 319 L 427 318.5 L 427.5 317 L 426.5 316 Z " /><path fill="rgb(136,201,249)" stroke="rgb(136,201,249)" stroke-width="1" opacity="0.996078431372549" d="M 420.5 318 Q 425 317 426 319.5 L 421.5 322 L 419 321.5 L 420.5 318 Z " /><path fill="rgb(136,201,249)" stroke="rgb(136,201,249)" stroke-width="1" opacity="0.996078431372549" d="M 481.5 326 Q 485.3 325.3 486 327.5 Q 487.1 330.8 484.5 330 L 480 327.5 L 481.5 326 Z " /><path fill="rgb(136,201,249)" stroke="rgb(136,201,249)" stroke-width="1" opacity="0.996078431372549" d="M 480 332 Q 485.2 329.9 484 334.5 L 480 336 L 480 332 Z " /><path fill="rgb(136,201,249)" stroke="rgb(136,201,249)" stroke-width="1" opacity="0.996078431372549" d="M 437.5 335 L 440 336.5 Q 439.3 338.8 441.5 338 L 447 341.5 L 438.5 344 L 436 340 L 439 338.5 L 437.5 335 Z " /><path fill="rgb(136,201,249)" stroke="rgb(136,201,249)" stroke-width="1" opacity="0.996078431372549" d="M 54 344 L 58 344.5 L 54 346 L 54 344 Z " /><path fill="rgb(136,201,249)" stroke="rgb(136,201,249)" stroke-width="1" opacity="0.996078431372549" d="M 482 346 L 484 346 L 484 352 L 482 352 L 482 346 Z " /><path fill="rgb(136,201,249)" stroke="rgb(136,201,249)" stroke-width="1" opacity="0.996078431372549" d="M 486 346 L 488 346 L 488 352 L 486 352 L 486 346 Z " /><path fill="rgb(136,201,249)" stroke="rgb(136,201,249)" stroke-width="1" opacity="0.996078431372549" d="M 112 348 L 114 348.5 L 114 357 Q 117 356 116 359 L 121 359 L 121 361 L 93 356 L 93.5 354 Q 96.8 356.7 103.5 356 L 107 353.5 L 108.5 351 Q 113.8 352.5 112 348 Z " /><path fill="rgb(136,201,249)" stroke="rgb(136,201,249)" stroke-width="1" opacity="0.996078431372549" d="M 592.5 352 L 593 355.5 L 591 354.5 L 592.5 352 Z " /><path fill="rgb(136,201,249)" stroke="rgb(136,201,249)" stroke-width="1" opacity="0.996078431372549" d="M 149.5 358 Q 156.3 355.8 154 362.5 L 145.5 367 L 141 365.5 L 148 364 Q 146.8 359.4 149.5 358 Z " /><path fill="rgb(136,201,249)" stroke="rgb(136,201,249)" stroke-width="1" opacity="0.996078431372549" d="M 134.5 359 Q 139 358 140 360.5 Q 142.1 366.4 137.5 365 L 124 361.5 Q 125.3 358.8 126.5 361 L 128.5 360 L 132.5 361 L 134.5 359 Z " /><path fill="rgb(136,201,249)" stroke="rgb(136,201,249)" stroke-width="1" opacity="0.996078431372549" d="M 163.5 366 L 166 366.5 L 163.5 367 L 163.5 366 Z " /><path fill="rgb(136,201,249)" stroke="rgb(136,201,249)" stroke-width="1" opacity="0.996078431372549" d="M 149.5 367 Q 156.8 365.8 159 369.5 L 156.5 370 L 149.5 368 L 149.5 367 Z " /><path fill="rgb(136,201,249)" stroke="rgb(136,201,249)" stroke-width="1" opacity="0.996078431372549" d="M 160.5 370 L 171.5 372 Q 172.9 369.4 177.5 370 L 176.5 372 L 174 372.5 Q 176.3 376 182 375 Q 180.9 377.7 183.5 377 L 185.5 376 L 187.5 377 L 191.5 375 L 195 376 Q 193.9 379.5 201.5 378 Q 203.5 380.8 208 380 L 208 384 L 209.5 384 L 215.5 388 L 226 386 L 224.5 389 L 221 390.5 L 225.5 392 L 230.5 391 L 235 392.5 L 234 395 L 238.5 398 L 246.5 399 L 249.5 402 Q 250.9 398 256 399 Q 254.7 394.9 258 396 Q 259.5 401.4 256.5 403 L 254 404.5 L 257 405 L 256.5 407 L 245.5 401 L 216.5 390 L 214.5 388 L 212.5 388 L 173.5 374 L 160.5 371 L 160.5 370 Z M 191 378 L 191 379 L 193 379 L 191 378 Z M 202 381 L 200 383 L 202 383 L 202 381 Z " /><path fill="rgb(136,201,249)" stroke="rgb(136,201,249)" stroke-width="1" opacity="0.996078431372549" d="M 592 377 L 598 377 L 598 384 L 592 384 L 592 377 Z " /><path fill="rgb(136,201,249)" stroke="rgb(136,201,249)" stroke-width="1" opacity="0.996078431372549" d="M 238 390 L 244 390 L 244 392 L 240.5 393 L 238 392 L 238 390 Z " /><path fill="rgb(136,201,249)" stroke="rgb(136,201,249)" stroke-width="1" opacity="0.996078431372549" d="M 258 406 L 264 407.5 L 261.5 409 L 258 408 L 258 406 Z " /><path fill="rgb(136,201,249)" stroke="rgb(136,201,249)" stroke-width="1" opacity="0.996078431372549" d="M 266 407 Q 269.8 406 271 408.5 L 266.5 411 L 264 409.5 L 266 409 L 266 407 Z " /><path fill="rgb(136,201,249)" stroke="rgb(136,201,249)" stroke-width="1" opacity="0.996078431372549" d="M 272.5 410 L 281.5 410 L 282 412 L 279 412.5 L 281 413.5 L 280.5 415 L 289.5 416 L 292.5 415 L 298 416.5 L 293 418.5 Q 302.5 418 308.5 421 L 309.5 420 L 316 420 L 316 423 L 321 423 L 321 425 L 293.5 420 L 269 411.5 L 272.5 410 Z " /><path fill="rgb(136,201,249)" stroke="rgb(136,201,249)" stroke-width="1" opacity="0.996078431372549" d="M 595 411 Q 598 410 597 413 Q 594 414 595 411 Z " /><path fill="rgb(136,201,250)" stroke="rgb(136,201,250)" stroke-width="1" opacity="1" d="M 251.5 4 L 255 4.5 L 248 6 Q 246.8 9.7 252 8 L 252 13.5 L 252 15.5 Q 253 20 250.5 21 L 249.5 19 L 249 21.5 L 250 23.5 L 248.5 25 L 238 26 Q 239 23 236 24 Q 237 27 234 26 L 234 23 L 227.5 23 L 226 22.5 L 227.5 26 L 233 26.5 L 231 27 Q 232.1 29.7 229.5 29 L 227.5 28 L 224.5 32 Q 221.8 31.4 223 37.5 L 222 37.5 L 221.5 35 L 219 39.5 L 219 45.5 L 221 52.5 L 225 57.5 L 218 58 Q 216.8 61 220.5 60 Q 221.6 62.8 225 62 L 225.5 60 L 228 70 Q 231 71.3 230 67.5 L 231 64 L 234.5 63 L 234.5 64 L 233 64.5 L 240 65 L 240.5 84 L 241.5 74 L 243 75.5 L 243 97.5 L 244 98.5 L 244 106.5 L 246 119 L 242 119.5 L 242.5 121 L 240.5 120 L 232.5 129 L 231 128.5 L 231.5 147 L 233 146.5 L 232.5 148 Q 235.1 147.2 234 150.5 L 232 153.5 L 233.5 154 L 237.5 153 L 238.5 155 L 234 155.5 Q 236.7 156.6 236 160 L 246.5 161 L 249.5 160 L 251 159.5 L 249 158.5 L 253.5 158 L 255.5 160 L 256.5 159 L 259 160.5 L 257.5 158 L 256 157.5 L 258.5 156 L 262 165.5 L 261 168.5 L 264 170 L 264 174 L 265.5 174 Q 267.3 177.1 269 175.5 L 268 178.5 L 269.5 178 L 271 178.5 L 269 179.5 L 274 183.5 L 272 184 Q 270.9 186.7 273.5 186 Q 275.3 189.1 277 187.5 L 278 189.5 L 275 191.5 L 276 200 L 280 200 L 280 204 Q 285.2 201.9 284 206.5 L 285.5 206 L 288.5 207 L 290 204.5 L 289.5 203 L 292 206.5 L 289 208 L 288 212 L 285 212.5 L 286 214.5 Q 284.7 217.3 283.5 215 L 276 218 L 274.5 232 L 274 230 Q 271 228.8 272 232.5 L 274 234.5 L 274 241.5 Q 276.8 243.5 276 248 L 280 248 L 280 246.5 L 283.5 245 L 287 247.5 L 286.5 249 L 288 249 L 288 255.5 L 288.5 256 L 325.5 256 Q 324.7 259.3 330 258 L 327 252.5 L 328 250.5 L 327.5 249 L 332.5 253 Q 335.8 254.2 335 258 L 338 259.5 Q 338.8 261.8 336.5 261 L 333 262 L 336.5 267 L 339.5 262 L 342 263.5 L 339 267.5 L 340 272 Q 343 271 342 274 L 344.5 274 Q 346.7 277.7 353.5 277 L 355.5 276 L 354 278.5 L 355 287 Q 352 285.8 353 289.5 L 352 293.5 L 353 297.5 Q 349.5 299 351 305.5 L 356 308 L 356.5 303 Q 360.3 304.5 359 310 L 363 312.5 L 364 320 L 371.5 320 L 372 324 L 380 324 L 380 320 L 388 320 L 388 315 Q 383.3 315.8 382 311.5 Q 387.9 311.4 390 307.5 L 390.5 303 L 396 305 Q 394.5 308.8 397.5 308 L 400.5 307 L 412 311 L 412 313 L 417.5 313 L 418 314.5 L 419.5 316 Q 425.6 314.9 428 317.5 L 427.5 319 L 430.5 318 L 430 319.5 L 432 338 L 436 338 L 436 334 L 437.5 334 Q 435.9 335.8 439 337.5 L 437.5 340 Q 435.3 339.3 436 341.5 L 439.5 344 Q 441.5 341 447.5 342 L 448.5 343 L 458.5 343 L 460 344.5 L 461 350 Q 465.1 348.7 464 352 L 468 352 Q 466.8 347.4 469.5 346 Q 473.3 346.8 474 344.5 L 476 336 Q 479.3 337.1 478 333 Q 474.2 334 473 331.5 L 475 325 L 484.5 324 L 487 324.5 Q 486.2 327.5 490 326 Q 491.1 323.3 488.5 324 L 486.5 321 L 490 322.5 L 490.5 324 L 496 324 L 496 321 Q 491.9 322.3 493 319 L 497.5 318 L 500 322 L 508 322 Q 506.8 318.3 512 320 L 512 316 L 518 316 Q 516.8 319 520.5 318 Q 521.5 315 526.5 316 L 529 317.5 Q 523.6 316.6 522 319.5 L 522 328 L 526.5 328 L 528 324 L 536 324 Q 534.8 329.3 538 328.5 L 538 336 L 553.5 336 L 554 340 L 556 340 L 556.5 338 L 567.5 338 Q 568.5 335 573.5 336 L 577 338.5 Q 575.3 343.3 579.5 342 L 581.5 341 L 586 344.5 Q 585.1 347.5 589.5 346 Q 594.5 349 595 356.5 L 594 362 Q 596.7 363.1 596 360.5 L 597 360.5 L 601 378 Q 597.5 376.9 599 384.5 L 600 385.5 L 600 396.5 Q 597.8 397.7 599 402.5 L 599 404.5 L 600 406.5 L 598 415 Q 594.3 413.6 596 419.5 L 593.5 424 L 591 422.5 L 594 421 L 592.5 417 L 590.5 416 L 590 417.5 L 591 420 L 576.5 420 L 576 423 Q 582.5 421.8 585 425.5 L 569.5 426 L 568.5 424 L 571 423.5 L 550.5 423 L 550.5 424 L 552 424.5 L 550.5 426 L 537.5 426 L 536.5 424 L 539 423.5 L 518.5 423 L 518.5 424 L 520 424.5 L 518.5 426 L 505.5 426 L 504.5 424 L 507 423.5 L 486.5 423 L 486.5 424 L 488 424.5 L 486.5 426 L 473.5 426 L 472.5 424 L 475 423.5 L 454.5 423 L 454.5 424 L 456 424.5 L 454.5 426 L 441.5 426 L 440.5 424 L 443 423.5 L 422.5 423 L 422.5 424 L 424 424.5 L 422.5 426 L 409.5 426 L 408.5 424 L 411 423.5 L 390.5 423 L 390.5 424 L 392 424.5 L 390.5 426 L 377.5 426 L 376.5 424 L 379 423.5 L 368.5 423 L 368.5 424 L 370 424.5 Q 367 427.5 359.5 426 L 359.5 424 Q 351.3 422.7 346.5 425 L 344.5 424 L 342.5 425 L 334.5 423 L 327 423 L 326.5 425 L 323.5 424 L 321 425 L 321 423 L 316 423 L 316 420 L 309.5 420 L 307.5 421 Q 302.3 417.7 293 418.5 L 298 416.5 L 290.5 415 L 288.5 416 L 280 414.5 L 280.5 413 L 279 412.5 L 282 412 L 281.5 410 L 272.5 410 L 267.5 411 L 267.5 410 L 271 408.5 Q 269.8 406 266 407 Q 267.3 410 263.5 409 L 263.5 407 L 258.5 406 L 257 406.5 Q 257.8 403.9 254.5 405 L 255.5 403 L 258 401.5 Q 260 394.6 256 396 Q 257.8 400.5 252.5 399 Q 249.5 405 246.5 399 L 238.5 398 L 234 395 L 235 392.5 L 226.5 391 L 224.5 392 L 221 390.5 L 226 387.5 Q 226.9 384.1 221.5 386 L 216.5 387 L 214.5 389 L 214.5 387 L 208 384 Q 210.2 378.4 204.5 380 Q 201.7 376.6 195 378 Q 196.3 375 192.5 376 L 189.5 375 L 186.5 377 L 184.5 376 L 182 377 Q 183.3 373.3 177.5 375 L 174 372.5 L 178 370.5 L 174.5 370 Q 173.1 372.6 168.5 372 Q 165.8 369.2 159.5 370 L 155.5 367 L 147 366.5 L 154 362.5 Q 156.3 355.8 149.5 358 Q 146.8 359.4 148 364 L 140 365 Q 141.3 360.4 138.5 359 L 134.5 359 Q 133.8 361.8 129.5 361 L 127.5 361 L 125.5 360 L 121 361 L 121 359 L 116 359 Q 117 356 114 357 L 114 348.5 L 112 348 Q 113.8 352.5 108.5 351 L 105.5 355 L 98.5 356 L 93.5 354 L 91.5 355 L 91.5 353 L 81.5 353 Q 80.3 350 76 351 Q 77.8 346.5 72.5 348 L 70.5 349 Q 69 345.5 67.5 348 L 57.5 348 Q 53.9 345.1 46.5 346 L 45 344.5 L 45.5 343 L 52 343 L 52 340 L 48 340 L 48 332 L 42 332 L 43 336.5 L 37.5 339 L 38 337.5 L 36 330 Q 33 328.8 34 332.5 L 33 332.5 L 30 326.5 L 30 309.5 L 29 304.5 L 31 305.5 L 31 308 L 36 308 Q 34.8 302.7 38 303.5 L 38 300.5 Q 40.8 299.4 40 296 L 48 294 L 48 284 L 41 284 L 41 280.5 L 40 278.5 L 42 274 Q 47.3 272.2 45 279.5 L 46 282 L 48 282 L 48 278 Q 51 279 50 276 L 48 275.5 L 48 267.5 L 48 265.5 L 49 261 Q 51.7 259.9 51 262.5 L 56 267.5 L 56 272 L 58 272 Q 56.3 277.2 60 276 L 60 272 L 68 272 L 68 266 Q 62.7 267.3 63.5 264 L 59.5 264 L 53 259 L 54.5 255 L 57 253.5 L 56 249.5 L 58 244 Q 60.7 245.1 60 242.5 L 59 240.5 L 61 240.5 L 62 237.5 L 61 232.5 Q 63.6 229.6 63 223.5 L 64.5 222 L 67 221.5 L 67 219.5 L 67 216 Q 64 217.3 65 213.5 L 68 203.5 L 68 201.5 L 69 188 Q 73.5 189.8 72 184.5 L 73 180 L 79.5 180 L 80 179.5 L 80 96.5 L 84 96 L 84 91.5 L 80 90 Q 81.2 86.3 76 88 L 76 83 L 73.5 83 L 70 81 L 69 77.5 L 75 76 L 78.5 82 L 88 80 L 89.5 84 L 96 84 L 96.5 88 L 104 88 L 104 84 L 98 84 Q 100 78 94 80 L 94 75 L 98 76 L 98 68.5 L 96.5 68 L 93 66.5 L 97.5 64 Q 100.3 65.3 98 66.5 L 98.5 68 L 104 68 Q 102.8 73.3 106 72.5 L 106 80 Q 102.3 78.8 104 84 L 112 84 L 112 67.5 L 113.5 67 L 114.5 68 L 128 68 Q 126 62 132 64 L 132 60 L 128.5 60 Q 129.3 63.3 124 62 L 123.5 60 L 108 60 L 108 66 L 104.5 66 L 102 65 L 101 62.5 Q 103 59.2 108 60 Q 106.9 57.3 109.5 58 L 121.5 52 L 126 52 Q 124.9 49.3 127.5 50 L 132.5 47 L 135.5 48 L 135.5 47 L 134 46.5 L 136.5 45 L 138.5 49 Q 142.3 49.8 143 47.5 Q 137.8 45.2 141.5 43 L 144 44 L 145.5 41 L 151.5 39 L 152 41.5 L 152 48 L 160 48 L 160 41.5 L 158 41 L 158 39.5 Q 154.3 37.8 157.5 36 L 161 35 L 162 37.5 L 160.5 40 L 164 40 L 164 36.5 Q 167.3 37.3 166 32 L 168.5 32 L 170.5 31 L 173.5 32 L 175.5 32 L 181 33 L 179.5 30 L 173 29.5 L 180.5 28 Q 182.4 24.3 187.5 24 Q 189 26.5 194.5 25 L 198.5 23 L 202 24 L 201 21.5 Q 202.5 17.8 208 19 L 210.5 15 Q 215.3 14.3 216 17.5 L 216 23.5 Q 219 22.5 218 27.5 L 220 26.5 L 220 20 Q 225.6 21.9 224 17 L 215 14.5 Q 215.8 12.3 219.5 13 L 223.5 14 L 226 16.5 L 226.5 20 L 228 18.5 L 228 12 L 230 12 Q 228.3 17.2 232 16 L 232 11 L 233.5 11 L 239.5 8 L 241.5 9 L 251.5 4 Z M 234 16 L 234 23 L 244 23 L 244 16 Q 238 14 240 20 L 236 20 Q 238 15 234 16 Z M 204 24 L 204 32 L 216 32 L 216 24 Q 213 23 214 26 L 209 26 Q 209 23 204 24 Z M 170 42 L 170 48 L 180 48 L 180 44 Q 175 45 176 42 L 170 42 Z M 217 46 Q 214 47 215 52 Q 217 55 218 52 Q 219 45 217 46 Z M 121 54 L 119 55 L 119 56 L 125 56 Q 124 53 121 54 Z M 240 96 Q 240 99 237 98 Q 236 101 240 100 L 240 96 Z M 230 118 L 230 122 L 234 121 Q 235 116 230 118 Z M 69 202 L 71 205 L 73 204 L 73 202 L 69 202 Z M 278 206 L 278 211 Q 279 213 283 212 Q 285 211 284 208 Q 283 205 278 206 Z M 64 232 Q 61 238 66 236 L 64 232 Z M 63 244 L 60 247 L 62 250 Q 68 252 66 246 L 63 244 Z M 333 254 L 333 258 L 333 257 Q 335 255 333 254 Z M 396 310 L 396 312 L 400 312 L 396 310 Z M 400 312 L 400 314 L 404 314 L 400 312 Z M 421 318 L 419 322 L 422 322 L 426 320 Q 425 317 421 318 Z M 482 326 L 480 328 L 485 330 Q 487 331 486 328 Q 485 325 482 326 Z M 520 328 L 520 330 L 512 330 L 512 336 L 522 336 L 522 329 L 520 328 Z M 480 332 L 480 336 L 484 335 Q 485 330 480 332 Z M 575 342 L 574 344 L 576 345 L 576 352 L 582 352 L 582 346 L 579 347 Q 576 346 577 343 L 575 342 Z M 580 342 L 580 344 L 582 345 Q 583 341 580 342 Z M 54 344 L 54 346 L 58 345 L 54 344 Z M 71 344 L 70 348 L 74 346 Q 75 343 71 344 Z M 482 346 L 482 352 L 484 352 L 484 346 L 482 346 Z M 486 346 L 486 352 L 488 352 L 488 346 L 486 346 Z M 593 352 L 591 355 L 593 356 L 593 352 Z M 164 366 L 164 367 L 166 367 L 164 366 Z M 592 377 L 592 384 L 598 384 L 598 377 L 592 377 Z M 238 390 L 238 392 L 241 393 L 244 392 L 244 390 L 238 390 Z M 595 411 Q 594 414 597 413 Q 598 410 595 411 Z " /><path fill="rgb(136,201,250)" stroke="rgb(136,201,250)" stroke-width="1" opacity="1" d="M 241 65 L 243 65.5 L 243 73 L 241 72.5 L 241 65 Z " /><path fill="rgb(136,201,250)" stroke="rgb(136,201,250)" stroke-width="1" opacity="1" d="M 88.5 69 Q 93.1 67.8 91 73 L 87 73 L 87 71.5 L 86.5 70 L 88.5 69 Z " /><path fill="rgb(136,201,250)" stroke="rgb(136,201,250)" stroke-width="1" opacity="1" d="M 82.5 71 L 82 72.5 Q 83.1 75.8 80.5 75 L 78.5 76 L 76 74.5 L 82.5 71 Z " /><path fill="rgb(136,201,250)" stroke="rgb(136,201,250)" stroke-width="1" opacity="1" d="M 64.5 80 L 67 81.5 L 66 84 L 72 84 Q 70.7 89.3 74 88.5 L 74 96 L 72 96.5 L 72 104 L 74 104.5 L 74 112 L 72 112.5 L 72 120 L 74 120.5 L 74 128 L 70.5 128 Q 71.3 131.3 66 130 L 66 132.5 L 65 132.5 L 64 124.5 L 65 123.5 L 65 115.5 L 64 111.5 L 65 109.5 L 64 107 Q 60.3 105.7 62 111.5 L 60 110.5 L 56 95.5 L 58 94.5 L 58 98 L 62 100 L 62 103.5 L 64.5 102 Q 67.1 102.7 66 100 L 64 100 L 64 96 Q 58.8 97.7 60 94 Q 65.6 96.2 64 90.5 Q 67.3 89 66 84 Q 61.4 85.3 60 82.5 L 64.5 80 Z " /><path fill="rgb(136,201,250)" stroke="rgb(136,201,250)" stroke-width="1" opacity="1" d="M 57.5 84 Q 59.8 84.8 59 88.5 Q 57.3 91.8 55.5 88 L 54 87.5 L 57.5 84 Z " /><path fill="rgb(136,201,250)" stroke="rgb(136,201,250)" stroke-width="1" opacity="1" d="M 66.5 135 L 67 138.5 L 66 138.5 L 66.5 135 Z " /><path fill="rgb(136,201,250)" stroke="rgb(136,201,250)" stroke-width="1" opacity="1" d="M 69 141 L 74 141 L 74 145.5 L 73 146.5 L 73 155.5 L 71.5 157 Q 66.9 158.3 69 152.5 L 68 150.5 L 69 149.5 L 69 141 Z " /><path fill="rgb(136,201,250)" stroke="rgb(136,201,250)" stroke-width="1" opacity="1" d="M 71 163 Q 74 162 73 165 Q 70 166 71 163 Z " /><path fill="rgb(136,201,250)" stroke="rgb(136,201,250)" stroke-width="1" opacity="1" d="M 70 167 Q 73 166 72 169 Q 69 170 70 167 Z " /><path fill="rgb(136,201,250)" stroke="rgb(136,201,250)" stroke-width="1" opacity="1" d="M 70 170 L 72 170 L 72 176 L 70 176 L 70 170 Z " /><path fill="rgb(136,201,250)" stroke="rgb(136,201,250)" stroke-width="1" opacity="1" d="M 280.5 192 L 282 196 L 280 195.5 L 280 193.5 L 280.5 192 Z " /><path fill="rgb(136,201,250)" stroke="rgb(136,201,250)" stroke-width="1" opacity="1" d="M 284.5 197 L 286.5 200 L 284 199 L 284.5 197 Z " /><path fill="rgb(136,201,250)" stroke="rgb(136,201,250)" stroke-width="1" opacity="1" d="M 276.5 236 L 278 238.5 L 277 238.5 L 276.5 236 Z " /><path fill="rgb(136,201,250)" stroke="rgb(136,201,250)" stroke-width="1" opacity="1" d="M 276.5 240 L 277.5 242 L 276.5 240 Z " /><path fill="rgb(136,201,250)" stroke="rgb(136,201,250)" stroke-width="1" opacity="1" d="M 309.5 245 L 313 247.5 L 310 248 L 309.5 245 Z " /><path fill="rgb(136,201,250)" stroke="rgb(136,201,250)" stroke-width="1" opacity="1" d="M 318 246 Q 324 244 322 250 L 318 247.5 L 318 246 Z " /><path fill="rgb(136,201,250)" stroke="rgb(136,201,250)" stroke-width="1" opacity="1" d="M 346.5 268 L 347.5 270 Q 344.7 270.7 346.5 268 Z " /><path fill="rgb(136,201,250)" stroke="rgb(136,201,250)" stroke-width="1" opacity="1" d="M 348.5 272 Q 352.3 271.3 353 273.5 L 347.5 274 L 348.5 272 Z " /><path fill="rgb(136,201,250)" stroke="rgb(136,201,250)" stroke-width="1" opacity="1" d="M 37.5 285 L 38 288.5 L 36 287.5 L 37.5 285 Z " /><path fill="rgb(136,201,250)" stroke="rgb(136,201,250)" stroke-width="1" opacity="1" d="M 31.5 299 L 32 301.5 L 31 301.5 L 31.5 299 Z " /><path fill="rgb(136,201,250)" stroke="rgb(136,201,250)" stroke-width="1" opacity="1" d="M 376.5 311 L 380 311.5 Q 378.8 314.3 377.5 312 L 376.5 311 Z " /><path fill="rgb(136,201,250)" stroke="rgb(136,201,250)" stroke-width="1" opacity="1" d="M 512 311 L 517 312.5 L 512 313 L 512 311 Z " /><path fill="rgb(136,201,250)" stroke="rgb(136,201,250)" stroke-width="1" opacity="1" d="M 502.5 316 L 506 316.5 Q 505 319 500.5 318 L 500.5 317 L 502.5 316 Z " /><path fill="rgb(136,201,250)" stroke="rgb(136,201,250)" stroke-width="1" opacity="1" d="M 535 320 L 537 320.5 L 535 321.5 L 535 320 Z " /><path fill="rgb(136,201,250)" stroke="rgb(136,201,250)" stroke-width="1" opacity="1" d="M 547.5 325 L 550 326.5 L 544.5 329 L 542 327.5 L 547.5 325 Z " /><path fill="rgb(136,201,250)" stroke="rgb(136,201,250)" stroke-width="1" opacity="1" d="M 434.5 326 L 435 329.5 L 434 329.5 L 434.5 326 Z " /><path fill="rgb(136,201,250)" stroke="rgb(136,201,250)" stroke-width="1" opacity="1" d="M 551.5 326 L 557 328.5 L 552 329 L 551.5 326 Z " /><path fill="rgb(136,201,250)" stroke="rgb(136,201,250)" stroke-width="1" opacity="1" d="M 558.5 329 L 566 333.5 Q 565.3 335.8 561.5 335 L 557 332.5 L 558.5 329 Z " /><path fill="rgb(136,201,250)" stroke="rgb(136,201,250)" stroke-width="1" opacity="1" d="M 554 332 Q 557 331 556 334 Q 553 335 554 332 Z " /><path fill="rgb(136,201,250)" stroke="rgb(136,201,250)" stroke-width="1" opacity="1" d="M 471 334 Q 474.7 332.5 474 335.5 L 474.5 337 L 473 337.5 Q 475.3 338.8 472.5 340 L 469.5 339 L 466.5 346 L 462 343.5 L 463.5 341 L 468 340 L 469.5 335 L 471 335.5 L 471 334 Z " /><path fill="rgb(136,201,250)" stroke="rgb(136,201,250)" stroke-width="1" opacity="1" d="M 190.5 378 L 193 378.5 L 190.5 379 L 190.5 378 Z " /><path fill="rgb(136,201,250)" stroke="rgb(136,201,250)" stroke-width="1" opacity="1" d="M 201.5 381 L 202 383 L 200 382.5 L 201.5 381 Z " /><path fill="rgb(189,25,49)" stroke="rgb(189,25,49)" stroke-width="1" opacity="0.996078431372549" d="M 233.5 29 L 255.5 29 L 265.5 31 L 266.5 30 L 274.5 30 L 275.5 31 L 285.5 31 L 286.5 32 L 311.5 33 L 317.5 36 Q 319 33.5 320.5 37 Q 324.5 36.5 325 39.5 L 329 48.5 L 329 54.5 L 326 61.5 L 320.5 67 Q 316.8 70.3 308.5 69 L 307.5 68 L 274.5 66 L 273.5 65 L 260.5 65 L 255.5 63 L 247.5 63 L 246.5 62 L 236.5 62 L 227 56.5 Q 228.1 53.2 225.5 54 Q 221.8 49.8 223 40.5 L 228 32 L 233.5 29 Z " /><path fill="rgb(189,25,49)" stroke="rgb(189,25,49)" stroke-width="1" opacity="0.996078431372549" d="M 311.5 109 L 322.5 109 L 331 115.5 L 334 123.5 L 334 128.5 L 333 131.5 Q 332.4 137.4 328.5 140 L 320.5 144 L 314.5 144 L 270.5 153 L 259.5 153 L 256.5 155 L 248.5 155 L 247.5 156 L 240.5 153 L 235 147.5 Q 231.5 143.5 233 134.5 L 239.5 125 L 242.5 123 L 244 123.5 Q 243.1 120.5 247.5 122 L 248.5 121 L 257.5 121 L 262.5 118 L 268.5 118 L 273.5 116 L 278.5 116 L 294.5 112 L 300.5 112 L 311.5 109 Z " /><path fill="rgb(189,25,49)" stroke="rgb(189,25,49)" stroke-width="1" opacity="0.996078431372549" d="M 348.5 180 L 352 181 L 352.5 183 Q 354 180.5 355.5 184 L 359 186.5 L 363 194.5 L 363 201.5 L 360 209 L 303.5 246 L 294.5 248 L 290.5 246 L 288.5 246 L 282 241.5 L 278 232.5 L 278 228.5 Q 280.2 220.2 286.5 216 L 335.5 183 L 348.5 180 Z " /><path fill="rgb(189,25,49)" stroke="rgb(189,25,49)" stroke-width="1" opacity="0.996078431372549" d="M 396.5 236 L 405.5 237 L 407.5 237 Q 413.3 238.3 416 242.5 Q 419.8 247.2 420 255.5 L 417 262.5 L 402 284 Q 399.3 282.9 400 285.5 L 389.5 299 L 388 299.5 L 388.5 301 L 386 302.5 L 382.5 307 L 378.5 309 L 371.5 310 Q 363.2 308.3 359 302.5 L 356 296.5 L 356 289.5 L 358 284 L 360 283.5 Q 357.5 282 361 280.5 L 380 252.5 L 390.5 240 Q 392.8 240.8 392 238.5 L 396.5 236 Z " /><path fill="rgb(189,25,49)" stroke="rgb(189,25,49)" stroke-width="1" opacity="0.996078431372549" d="M 459.5 275 L 463.5 276 L 468.5 275 L 474 277 L 474 279 Q 477.7 277.5 477 280.5 L 481 285.5 L 483 293.5 L 481 296.5 L 474 319.5 L 470 326.5 L 470 329.5 L 465.5 336 L 455.5 341 L 449.5 341 Q 442.8 338.8 439 333.5 L 437 328.5 L 437 316.5 L 443 302.5 L 448 285.5 L 453.5 278 L 459.5 275 Z " /><path fill="rgb(189,25,49)" stroke="rgb(189,25,49)" stroke-width="1" opacity="0.996078431372549" d="M 384.5 498 L 382.5 501 L 384.5 498 Z " /><path fill="rgb(189,25,49)" stroke="rgb(189,25,49)" stroke-width="1" opacity="0.996078431372549" d="M 486.5 498 L 487.5 500 L 486.5 498 Z " /><path fill="rgb(189,25,49)" stroke="rgb(189,25,49)" stroke-width="1" opacity="0.996078431372549" d="M 546.5 498 L 544.5 501 L 546.5 498 Z " /><path fill="rgb(189,25,49)" stroke="rgb(189,25,49)" stroke-width="1" opacity="0.996078431372549" d="M 43.5 501 L 36.5 509 L 43.5 501 Z " /><path fill="rgb(189,25,49)" stroke="rgb(189,25,49)" stroke-width="1" opacity="0.996078431372549" d="M 375.5 507 L 373.5 510 L 375.5 507 Z " /><path fill="rgb(189,25,49)" stroke="rgb(189,25,49)" stroke-width="1" opacity="0.996078431372549" d="M 495.5 507 L 496.5 509 L 495.5 507 Z " /><path fill="rgb(189,25,49)" stroke="rgb(189,25,49)" stroke-width="1" opacity="0.996078431372549" d="M 34.5 511 L 33.5 513 L 34.5 511 Z " /><path fill="rgb(189,25,49)" stroke="rgb(189,25,49)" stroke-width="1" opacity="0.996078431372549" d="M 371.5 512 L 370.5 514 L 371.5 512 Z " /><path fill="rgb(189,25,49)" stroke="rgb(189,25,49)" stroke-width="1" opacity="0.996078431372549" d="M 162.5 513 L 163.5 515 L 162.5 513 Z " /><path fill="rgb(189,25,49)" stroke="rgb(189,25,49)" stroke-width="1" opacity="0.996078431372549" d="M 416.5 524 L 415.5 526 L 416.5 524 Z " /><path fill="rgb(189,25,49)" stroke="rgb(189,25,49)" stroke-width="1" opacity="0.996078431372549" d="M 460.5 528 L 462.5 531 L 460.5 528 Z " /><path fill="rgb(189,25,49)" stroke="rgb(189,25,49)" stroke-width="1" opacity="0.996078431372549" d="M 124.5 530 L 125.5 532 L 124.5 530 Z " /><path fill="rgb(189,25,49)" stroke="rgb(189,25,49)" stroke-width="1" opacity="0.996078431372549" d="M 408.5 530 L 405.5 534 L 408.5 530 Z " /><path fill="rgb(189,25,49)" stroke="rgb(189,25,49)" stroke-width="1" opacity="0.996078431372549" d="M 464.5 532 L 465.5 534 L 464.5 532 Z " /><path fill="rgb(189,25,49)" stroke="rgb(189,25,49)" stroke-width="1" opacity="0.996078431372549" d="M 128.5 534 L 129.5 536 L 128.5 534 Z " /><path fill="rgb(189,25,49)" stroke="rgb(189,25,49)" stroke-width="1" opacity="0.996078431372549" d="M 65.5 536 L 64.5 538 L 65.5 536 Z " /><path fill="rgb(189,25,49)" stroke="rgb(189,25,49)" stroke-width="1" opacity="0.996078431372549" d="M 475.5 555 L 476 564.5 L 475 564.5 L 475.5 555 Z " /><path fill="rgb(189,25,49)" stroke="rgb(189,25,49)" stroke-width="1" opacity="0.996078431372549" d="M 137.5 564 L 138 566.5 L 137 566.5 L 137.5 564 Z " /><path fill="rgb(189,25,49)" stroke="rgb(189,25,49)" stroke-width="1" opacity="0.996078431372549" d="M 465.5 586 L 460.5 592 L 465.5 586 Z " /><path fill="rgb(189,25,49)" stroke="rgb(189,25,49)" stroke-width="1" opacity="0.996078431372549" d="M 406.5 587 L 408.5 590 L 406.5 587 Z " /><path fill="rgb(97,36,25)" stroke="rgb(97,36,25)" stroke-width="1" opacity="0.9921568627450981" d="M 257 5 Q 260.3 3.9 259 8 Q 255.7 9.1 257 5 Z " /><path fill="rgb(97,36,25)" stroke="rgb(97,36,25)" stroke-width="1" opacity="0.9921568627450981" d="M 264.5 9 L 266.5 12 L 264.5 9 Z " /><path fill="rgb(97,36,25)" stroke="rgb(97,36,25)" stroke-width="1" opacity="0.9921568627450981" d="M 272.5 16 L 273 18.5 L 265.5 29 L 256.5 29 L 250 27.5 L 263.5 27 L 264.5 28 L 268 24.5 L 272.5 16 Z " /><path fill="rgb(97,36,25)" stroke="rgb(97,36,25)" stroke-width="1" opacity="0.9921568627450981" d="M 244.5 63 L 245.5 64 L 256 64 L 255.5 90 L 255 65 L 244.5 65 L 244.5 63 Z " /><path fill="rgb(97,36,25)" stroke="rgb(97,36,25)" stroke-width="1" opacity="0.9921568627450981" d="M 255.5 92 Q 258 96.5 257 104.5 L 256 104.5 L 255.5 92 Z " /><path fill="rgb(97,36,25)" stroke="rgb(97,36,25)" stroke-width="1" opacity="0.9921568627450981" d="M 257.5 106 L 259 119 L 247.5 122 L 248 120.5 L 248.5 119 L 255.5 119 L 257 117.5 L 257.5 106 Z " /><path fill="rgb(97,36,25)" stroke="rgb(97,36,25)" stroke-width="1" opacity="0.9921568627450981" d="M 262.5 154 Q 267.8 152.8 269 155.5 L 268.5 157 L 264.5 155 L 259.5 156 L 259.5 155 L 262.5 154 Z " /><path fill="rgb(97,36,25)" stroke="rgb(97,36,25)" stroke-width="1" opacity="0.9921568627450981" d="M 269.5 160 L 274 169.5 L 272.5 173 L 272 170.5 L 273 168.5 L 269 162.5 L 269.5 160 Z " /><path fill="rgb(97,36,25)" stroke="rgb(97,36,25)" stroke-width="1" opacity="0.9921568627450981" d="M 274.5 171 L 277 176.5 L 275 175.5 L 274.5 171 Z " /><path fill="rgb(97,36,25)" stroke="rgb(97,36,25)" stroke-width="1" opacity="0.9921568627450981" d="M 268.5 172 L 269.5 174 L 268.5 172 Z " /><path fill="rgb(97,36,25)" stroke="rgb(97,36,25)" stroke-width="1" opacity="0.9921568627450981" d="M 277.5 178 L 279 180.5 L 277 179.5 L 277.5 178 Z " /><path fill="rgb(97,36,25)" stroke="rgb(97,36,25)" stroke-width="1" opacity="0.9921568627450981" d="M 285.5 193 L 289 198.5 L 287 197.5 L 285.5 193 Z " /><path fill="rgb(97,36,25)" stroke="rgb(97,36,25)" stroke-width="1" opacity="0.9921568627450981" d="M 27.5 331 Q 30.4 338.6 36.5 343 L 47.5 348 L 119.5 361 L 163.5 372 L 202.5 385 L 210.5 389 L 213.5 389 L 274.5 415 L 311.5 425 L 335.5 427 L 336.5 428 L 595.5 428 L 600 431.5 Q 604.2 437.3 603 448.5 L 602 453.5 L 597.5 460 L 592.5 462 L 322.5 462 L 321.5 461 L 298.5 458 L 272.5 451 Q 230.3 437.2 191.5 420 L 173.5 414 L 155 411 L 145 462 L 35.5 462 L 35 458.5 L 34 457.5 L 33 444.5 L 20 398.5 L 20 372.5 L 21 371.5 L 21 363.5 L 22 362.5 L 24 344.5 L 27.5 331 Z " /><path fill="rgb(97,36,25)" stroke="rgb(97,36,25)" stroke-width="1" opacity="0.9921568627450981" d="M 18.5 486 L 25.5 495 L 33.5 498 L 47 498.5 L 36 508.5 L 30.5 516 L 21 502.5 L 18 494.5 L 18.5 486 Z " /><path fill="rgb(97,36,25)" stroke="rgb(97,36,25)" stroke-width="1" opacity="0.9921568627450981" d="M 149.5 498 L 176 498.5 Q 172.1 509.1 164.5 516 L 149.5 498 Z " /><path fill="rgb(97,36,25)" stroke="rgb(97,36,25)" stroke-width="1" opacity="0.9921568627450981" d="M 357.5 498 L 384 498.5 L 368.5 516 Q 360.7 508.5 357.5 498 Z " /><path fill="rgb(97,36,25)" stroke="rgb(97,36,25)" stroke-width="1" opacity="0.9921568627450981" d="M 487.5 498 L 514 498.5 Q 509.8 508.8 502.5 516 L 487.5 498 Z " /><path fill="rgb(97,36,25)" stroke="rgb(97,36,25)" stroke-width="1" opacity="0.9921568627450981" d="M 517 498 L 546 498.5 L 541 505 Q 538.3 503.9 539 506.5 Q 533.5 511.6 532 520 L 524 513.5 Q 518.4 507.3 517 498 Z " /><path fill="rgb(97,36,25)" stroke="rgb(97,36,25)" stroke-width="1" opacity="0.9921568627450981" d="M 92.5 520 L 103.5 520 L 111.5 522 L 124 529 L 125.5 532 L 128 533.5 Q 138.1 543.4 138 563.5 L 133 579.5 L 123.5 591 L 107.5 599 L 92.5 600 Q 74.3 596.3 65 583.5 L 59 571.5 L 58 553.5 Q 61.4 536.4 73.5 528 L 81.5 523 L 92.5 520 Z " /><path fill="rgb(97,36,25)" stroke="rgb(97,36,25)" stroke-width="1" opacity="0.9921568627450981" d="M 430.5 520 L 441.5 520 L 451.5 523 L 464 531 L 474 547.5 L 475 552.5 L 475 568.5 Q 470.5 584.5 458.5 593 Q 448.9 600.9 430.5 600 Q 411.9 596.6 403 583.5 Q 397.9 577.1 396 567.5 L 396 552.5 Q 400 535.5 412.5 527 Q 419.8 521.8 430.5 520 Z " /><path fill="rgb(231,97,103)" stroke="rgb(231,97,103)" stroke-width="1" opacity="0.9686274509803922" d="M 291.5 0 L 295.5 0 L 304.5 3 L 326 16.5 L 317.5 34 L 267 30 L 270 21.5 L 272.5 19 L 274 18.5 L 273.5 17 L 276 15.5 Q 275.3 13.3 277.5 14 L 283 9.5 L 291.5 0 Z " /><path fill="rgb(231,97,103)" stroke="rgb(231,97,103)" stroke-width="1" opacity="0.9686274509803922" d="M 228.5 31 L 226.5 34 L 228.5 31 Z " /><path fill="rgb(231,97,103)" stroke="rgb(231,97,103)" stroke-width="1" opacity="0.9686274509803922" d="M 228.5 58 L 229.5 60 L 228.5 58 Z " /><path fill="rgb(231,97,103)" stroke="rgb(231,97,103)" stroke-width="1" opacity="0.9686274509803922" d="M 258.5 64 L 268.5 66 L 280.5 66 L 281.5 67 L 312 69 L 313 85.5 L 314 86.5 L 314 88.5 L 314 94.5 L 317 107.5 L 315.5 109 L 308.5 109 L 282.5 115 L 259 118 L 258 114.5 L 258 97.5 L 256 95.5 L 256 65 L 258.5 64 Z " /><path fill="rgb(231,97,103)" stroke="rgb(231,97,103)" stroke-width="1" opacity="0.9686274509803922" d="M 326.5 141 L 343 179.5 L 334.5 183 Q 316.9 197.4 295.5 208 L 296 206.5 L 282 183 L 280 183 Q 281.3 178.9 278 180 L 278 176.5 L 275 172.5 L 275.5 171 Q 272.9 171.8 274 168.5 Q 271.2 166.8 272 161.5 L 269 157.5 L 269 153 L 284.5 151 L 305.5 146 L 311.5 146 L 316.5 144 L 321.5 144 L 326.5 141 Z " /><path fill="rgb(231,97,103)" stroke="rgb(231,97,103)" stroke-width="1" opacity="0.9686274509803922" d="M 358.5 210 L 361 211.5 Q 360.3 213.8 362.5 213 L 392 238.5 L 385 245.5 L 360.5 280 L 356.5 274 L 341.5 260 L 340 260 L 337.5 256 Q 335.3 256.8 336 254.5 L 331 248 L 328 246.5 L 320.5 237 L 318 236.5 L 358.5 210 Z " /><path fill="rgb(231,97,103)" stroke="rgb(231,97,103)" stroke-width="1" opacity="0.9686274509803922" d="M 282.5 242 L 283.5 244 L 282.5 242 Z " /><path fill="rgb(231,97,103)" stroke="rgb(231,97,103)" stroke-width="1" opacity="0.9686274509803922" d="M 418 260 L 420.5 260 Q 433.8 272.1 450 280 L 440 306.5 L 440 309.5 L 438 311.5 L 437 318 L 420.5 312 L 417.5 312 L 391 298.5 L 413 269.5 L 418 260 Z " /><path fill="rgb(231,97,103)" stroke="rgb(231,97,103)" stroke-width="1" opacity="0.9686274509803922" d="M 355.5 291 L 356 295.5 L 355 295.5 L 355.5 291 Z " /><path fill="rgb(231,97,103)" stroke="rgb(231,97,103)" stroke-width="1" opacity="0.9686274509803922" d="M 482.5 297 L 506 309.5 Q 506.8 311.8 504.5 311 L 491.5 318 L 472.5 324 L 473 322.5 L 482.5 297 Z " /><path fill="rgb(231,97,103)" stroke="rgb(231,97,103)" stroke-width="1" opacity="0.9686274509803922" d="M 465.5 336 L 463.5 339 L 465.5 336 Z " /><path fill="rgb(231,97,103)" stroke="rgb(231,97,103)" stroke-width="1" opacity="0.9686274509803922" d="M 452.5 341 L 456 341.5 L 452.5 342 L 452.5 341 Z " /><path fill="rgb(231,97,103)" stroke="rgb(231,97,103)" stroke-width="1" opacity="0.9686274509803922" d="M 336.5 427 L 340 427.5 L 336.5 428 L 336.5 427 Z " /><path fill="rgb(231,97,103)" stroke="rgb(231,97,103)" stroke-width="1" opacity="0.9686274509803922" d="M 86.5 480 L 89 480.5 L 86.5 481 L 86.5 480 Z " /><path fill="rgb(231,97,103)" stroke="rgb(231,97,103)" stroke-width="1" opacity="0.9686274509803922" d="M 106.5 480 L 114 481.5 L 110.5 482 L 106.5 481 L 106.5 480 Z " /><path fill="rgb(231,97,103)" stroke="rgb(231,97,103)" stroke-width="1" opacity="0.9686274509803922" d="M 444.5 480 L 451 481.5 L 448.5 482 L 444.5 481 L 444.5 480 Z " /><path fill="rgb(231,97,103)" stroke="rgb(231,97,103)" stroke-width="1" opacity="0.9686274509803922" d="M 419.5 481 L 422 481.5 L 419.5 482 L 419.5 481 Z " /><path fill="rgb(231,97,103)" stroke="rgb(231,97,103)" stroke-width="1" opacity="0.9686274509803922" d="M 76.5 482 L 78 482.5 L 73.5 484 L 73.5 483 L 76.5 482 Z " /><path fill="rgb(231,97,103)" stroke="rgb(231,97,103)" stroke-width="1" opacity="0.9686274509803922" d="M 117.5 482 L 122 483.5 L 120.5 484 L 117.5 483 L 117.5 482 Z " /><path fill="rgb(231,97,103)" stroke="rgb(231,97,103)" stroke-width="1" opacity="0.9686274509803922" d="M 70.5 484 L 72 484.5 L 69.5 486 L 70.5 484 Z " /><path fill="rgb(231,97,103)" stroke="rgb(231,97,103)" stroke-width="1" opacity="0.9686274509803922" d="M 408.5 484 L 407.5 486 L 406 485.5 L 408.5 484 Z " /><path fill="rgb(231,97,103)" stroke="rgb(231,97,103)" stroke-width="1" opacity="0.9686274509803922" d="M 461.5 484 L 465 485.5 L 463.5 486 L 461.5 484 Z " /><path fill="rgb(231,97,103)" stroke="rgb(231,97,103)" stroke-width="1" opacity="0.9686274509803922" d="M 65.5 486 L 67 486.5 L 64.5 488 L 65.5 486 Z " /><path fill="rgb(231,97,103)" stroke="rgb(231,97,103)" stroke-width="1" opacity="0.9686274509803922" d="M 403.5 486 L 405 486.5 L 402.5 488 L 403.5 486 Z " /><path fill="rgb(231,97,103)" stroke="rgb(231,97,103)" stroke-width="1" opacity="0.9686274509803922" d="M 466.5 486 L 470 487.5 L 468.5 488 L 466.5 486 Z " /><path fill="rgb(231,97,103)" stroke="rgb(231,97,103)" stroke-width="1" opacity="0.9686274509803922" d="M 61.5 488 L 60.5 490 L 61.5 488 Z " /><path fill="rgb(231,97,103)" stroke="rgb(231,97,103)" stroke-width="1" opacity="0.9686274509803922" d="M 133.5 488 L 136 489.5 L 134.5 489 L 133.5 488 Z " /><path fill="rgb(231,97,103)" stroke="rgb(231,97,103)" stroke-width="1" opacity="0.9686274509803922" d="M 399.5 488 L 398.5 490 L 397 489.5 L 399.5 488 Z " /><path fill="rgb(231,97,103)" stroke="rgb(231,97,103)" stroke-width="1" opacity="0.9686274509803922" d="M 472.5 488 L 473.5 490 L 472.5 488 Z " /><path fill="rgb(231,97,103)" stroke="rgb(231,97,103)" stroke-width="1" opacity="0.9686274509803922" d="M 57.5 490 L 59 490.5 L 56.5 492 L 57.5 490 Z " /><path fill="rgb(231,97,103)" stroke="rgb(231,97,103)" stroke-width="1" opacity="0.9686274509803922" d="M 137.5 490 L 138.5 492 L 137.5 490 Z " /><path fill="rgb(231,97,103)" stroke="rgb(231,97,103)" stroke-width="1" opacity="0.9686274509803922" d="M 395.5 490 L 394.5 492 L 395.5 490 Z " /><path fill="rgb(231,97,103)" stroke="rgb(231,97,103)" stroke-width="1" opacity="0.9686274509803922" d="M 475.5 490 L 476.5 492 L 475.5 490 Z " /><path fill="rgb(231,97,103)" stroke="rgb(231,97,103)" stroke-width="1" opacity="0.9686274509803922" d="M 54.5 492 L 53.5 494 L 54.5 492 Z " /><path fill="rgb(231,97,103)" stroke="rgb(231,97,103)" stroke-width="1" opacity="0.9686274509803922" d="M 392.5 492 L 391.5 494 L 388.5 496 L 390.5 493 L 392.5 492 Z " /><path fill="rgb(231,97,103)" stroke="rgb(231,97,103)" stroke-width="1" opacity="0.9686274509803922" d="M 478.5 492 L 479.5 494 L 478.5 492 Z " /><path fill="rgb(231,97,103)" stroke="rgb(231,97,103)" stroke-width="1" opacity="0.9686274509803922" d="M 142.5 493 L 144.5 496 L 142.5 493 Z " /><path fill="rgb(231,97,103)" stroke="rgb(231,97,103)" stroke-width="1" opacity="0.9686274509803922" d="M 51.5 494 L 50.5 496 L 51.5 494 Z " /><path fill="rgb(231,97,103)" stroke="rgb(231,97,103)" stroke-width="1" opacity="0.9686274509803922" d="M 481.5 494 L 482.5 496 L 481.5 494 Z " /><path fill="rgb(231,97,103)" stroke="rgb(231,97,103)" stroke-width="1" opacity="0.9686274509803922" d="M 48.5 496 L 47.5 498 L 48.5 496 Z " /><path fill="rgb(231,97,103)" stroke="rgb(231,97,103)" stroke-width="1" opacity="0.9686274509803922" d="M 146.5 496 L 147.5 498 L 146.5 496 Z " /><path fill="rgb(231,97,103)" stroke="rgb(231,97,103)" stroke-width="1" opacity="0.9686274509803922" d="M 386.5 496 L 385.5 498 L 384 497.5 L 386.5 496 Z " /><path fill="rgb(231,97,103)" stroke="rgb(231,97,103)" stroke-width="1" opacity="0.9686274509803922" d="M 488.5 500 L 489.5 502 L 488.5 500 Z " /><path fill="rgb(231,97,103)" stroke="rgb(231,97,103)" stroke-width="1" opacity="0.9686274509803922" d="M 493.5 505 L 494.5 507 L 493.5 505 Z " /><path fill="rgb(243,145,12)" stroke="rgb(243,145,12)" stroke-width="1" opacity="0.9882352941176471" d="M 89.5 480 L 105.5 480 L 128.5 486 Q 147.1 493.9 159 508.5 L 164.5 516 Q 166.8 515.3 166 517.5 Q 173.9 527.6 177 542.5 L 178 547.5 L 178 572.5 Q 171.2 605.7 148.5 623 Q 135.4 633.9 116.5 639 Q 111.8 637.8 110.5 640 L 84.5 640 Q 53.7 633.8 37 613.5 Q 24.7 599.8 19 579.5 L 18 568.5 L 17 567.5 L 17 551.5 L 23 528.5 L 30.5 516 Q 32.8 516.8 32 514.5 L 44 500 L 62.5 488 L 78.5 482 Q 85.9 482.9 89.5 480 Z M 90 520 L 74 528 Q 71 527 72 530 L 68 532 L 60 546 L 58 553 Q 56 577 68 587 Q 67 589 70 588 L 72 592 L 90 600 L 106 600 L 113 598 L 123 592 Q 134 583 138 567 L 138 554 Q 135 551 136 546 L 130 536 Q 124 528 115 523 L 106 520 L 90 520 Z " /><path fill="rgb(243,145,12)" stroke="rgb(243,145,12)" stroke-width="1" opacity="0.9882352941176471" d="M 425.5 480 L 443.5 480 L 460.5 484 L 468.5 488 L 471.5 488 L 493 504.5 L 505 518.5 L 511 530.5 L 516 549.5 L 516 570.5 L 514 580.5 L 507 598.5 Q 499.2 612.2 487.5 622 Q 475.4 632.9 457.5 638 L 448.5 640 L 422.5 640 Q 390.1 633.4 373 611.5 Q 362.4 598.6 357 580.5 L 355 570.5 L 355 549.5 L 360 530.5 L 366 518.5 L 376 506 Q 378.7 507.1 378 504.5 L 396.5 490 L 407.5 486 L 409.5 484 L 416.5 482 L 421.5 482 L 425.5 480 Z M 429 520 Q 416 522 409 530 L 400 541 L 396 551 Q 394 564 397 573 Q 400 582 406 588 Q 414 597 429 600 Q 439 601 447 599 L 461 592 Q 473 583 476 565 L 476 556 L 474 547 L 466 534 Q 460 526 450 522 Q 442 518 429 520 Z " /><path fill="rgb(243,145,12)" stroke="rgb(243,145,12)" stroke-width="1" opacity="0.9882352941176471" d="M 547.5 498 L 603.5 498 L 624 516.5 L 631 526.5 L 632 538.5 L 624 550.5 L 591.5 583 L 582.5 589 L 572.5 590 Q 560.5 585.5 553 576.5 Q 540.7 564.8 533 548.5 Q 528.8 540.2 529 527.5 Q 533.2 511.2 543.5 501 L 547.5 498 Z " /></svg>