<svg width="107" height="65" viewBox="0 0 107 65" fill="none" xmlns="http://www.w3.org/2000/svg">
<g filter="url(#filter0_d_37615_20979)">
<path d="M42.1436 6C48.2695 6 53.8174 8.50078 57.8427 12.5472C58.2142 12.9207 58.7361 13.1007 59.2563 13.0368C60.0841 12.9351 60.9283 12.8825 61.7855 12.8825C67.979 12.8825 73.4937 15.6203 77.0418 19.8817C77.434 20.3527 78.0434 20.5817 78.6472 20.5005C79.2291 20.4222 79.8239 20.3816 80.4286 20.3816C87.3717 20.3817 93 25.7147 93 32.2933C93 38.8719 87.3716 44.205 80.4286 44.205C79.2524 44.205 78.1139 44.0518 77.0342 43.7655C76.4484 43.6101 75.8192 43.7574 75.3728 44.171C71.8752 47.412 67.0782 49.4118 61.7855 49.4118C59.1832 49.4118 56.7007 48.9281 54.4336 48.0514C53.9597 47.8682 53.4288 47.9054 52.9859 48.1555C49.7775 49.9673 46.0799 51 42.1436 51C37.846 51 33.833 49.769 30.4306 47.6372C29.7777 47.2282 28.9307 47.3082 28.3411 47.8058C25.9785 49.7994 22.9378 50.9995 19.6193 50.9995C12.0977 50.9994 6.00006 44.837 6 37.235C6 29.633 12.0976 23.4703 19.6193 23.4703C20.0897 23.4703 20.5085 23.1535 20.6296 22.6941C23.1626 13.0816 31.8348 6.00001 42.1436 6Z" fill="white"/>
<path d="M32.2543 19.7443C32.2543 20.6202 31.5518 21.3302 30.6852 21.3302C29.8185 21.3302 29.116 20.6202 29.116 19.7443C29.116 18.8685 29.8185 18.1585 30.6852 18.1585C31.5518 18.1585 32.2543 18.8685 32.2543 19.7443Z" fill="#202020"/>
<path d="M39.3154 18.4228C39.3154 19.2986 38.6128 20.0086 37.7462 20.0086C36.8796 20.0086 36.1771 19.2986 36.1771 18.4228C36.1771 17.5469 36.8796 16.8369 37.7462 16.8369C38.6128 16.8369 39.3154 17.5469 39.3154 18.4228Z" fill="#202020"/>
<path d="M31.2729 24.102C31.5754 23.7128 32.125 23.6351 32.5204 23.9175L32.5582 23.9458L32.6602 24.0233C33.1929 24.4117 34.0689 24.8078 35.0331 24.7985C36.0043 24.789 37.1745 24.3696 38.2765 22.849L38.3054 22.8115C38.6109 22.4318 39.1608 22.3571 39.5558 22.6495C39.9636 22.9514 40.0521 23.5303 39.7534 23.9425L39.6194 24.1224C38.2277 25.9465 36.588 26.6335 35.0507 26.6484C33.6168 26.6624 32.3653 26.0923 31.5786 25.5162L31.4275 25.401L31.3912 25.3706C31.026 25.0492 30.9705 24.4913 31.2729 24.102Z" fill="#202020"/>
</g>
<defs>
<filter id="filter0_d_37615_20979" x="0" y="0" width="107" height="65" filterUnits="userSpaceOnUse" color-interpolation-filters="sRGB">
<feFlood flood-opacity="0" result="BackgroundImageFix"/>
<feColorMatrix in="SourceAlpha" type="matrix" values="0 0 0 0 0 0 0 0 0 0 0 0 0 0 0 0 0 0 127 0" result="hardAlpha"/>
<feOffset dx="4" dy="4"/>
<feGaussianBlur stdDeviation="5"/>
<feComposite in2="hardAlpha" operator="out"/>
<feColorMatrix type="matrix" values="0 0 0 0 0.240404 0 0 0 0 0.618659 0 0 0 0 0.949632 0 0 0 0.04 0"/>
<feBlend mode="normal" in2="BackgroundImageFix" result="effect1_dropShadow_37615_20979"/>
<feBlend mode="normal" in="SourceGraphic" in2="effect1_dropShadow_37615_20979" result="shape"/>
</filter>
</defs>
</svg>
